<svg width="128" height="80" viewBox="0 0 128 80" fill="none" xmlns="http://www.w3.org/2000/svg">
<path d="M127.466 40C127.466 45.6831 126.81 50.9654 125.499 55.847C124.26 60.7286 122.366 64.9545 119.816 68.5246C117.338 72.0947 114.205 74.8998 110.417 76.9399C106.701 78.98 102.366 80 97.4112 80C92.4568 80 88.0852 78.98 84.2965 76.9399C80.5806 74.8998 77.4477 72.0947 74.8976 68.5246C72.3475 64.9545 70.4167 60.7286 69.1052 55.847C67.7937 50.9654 67.138 45.6831 67.138 40C67.138 34.3169 67.7937 29.0346 69.1052 24.153C70.4167 19.2714 72.3475 15.0455 74.8976 11.4754C77.4477 7.90528 80.5806 5.10018 84.2965 3.06011C88.0852 1.02004 92.4568 0 97.4112 0C102.366 0 106.701 1.02004 110.417 3.06011C114.205 5.10018 117.338 7.90528 119.816 11.4754C122.366 15.0455 124.26 19.2714 125.499 24.153C126.81 29.0346 127.466 34.3169 127.466 40ZM76.3183 40C76.3183 44.2259 76.7191 48.2332 77.5205 52.0219C78.322 55.8106 79.5606 59.1257 81.2364 61.9672C82.985 64.8087 85.1708 67.0674 87.7937 68.7432C90.4895 70.4189 93.6954 71.2568 97.4112 71.2568C101.127 71.2568 104.296 70.4189 106.919 68.7432C109.542 67.0674 111.692 64.8087 113.368 61.9672C115.043 59.1257 116.282 55.8106 117.083 52.0219C117.885 48.2332 118.286 44.2259 118.286 40C118.286 35.7741 117.885 31.7669 117.083 27.9781C116.282 24.1894 115.043 20.8743 113.368 18.0328C111.692 15.1913 109.542 12.9326 106.919 11.2568C104.296 9.58106 101.127 8.74317 97.4112 8.74317C93.6954 8.74317 90.4895 9.58106 87.7937 11.2568C85.1708 12.9326 82.985 15.1913 81.2364 18.0328C79.5606 20.8743 78.322 24.1894 77.5205 27.9781C76.7191 31.7669 76.3183 35.7741 76.3183 40Z" fill="white"/>
<path d="M28.5246 80C15.0455 80 5.53734 73.9162 0 61.7486L7.97814 57.7049C11.9854 66.7395 18.7614 71.2568 28.306 71.2568C33.9162 71.2568 38.3971 69.8725 41.7486 67.1038C45.1002 64.3352 46.776 60.6557 46.776 56.0656C46.776 52.204 45.5373 49.1075 43.0601 46.776C40.5829 44.4444 37.1585 43.2787 32.7869 43.2787H17.0492V34.3169H32.459C36.3934 34.3169 39.5264 33.2605 41.8579 31.1475C44.1894 29.0346 45.3552 26.1202 45.3552 22.4044C45.3552 18.2514 43.8251 14.9362 40.765 12.459C37.7778 9.98179 33.7705 8.74317 28.7432 8.74317C19.8543 8.74317 13.5155 12.8597 9.72678 21.0929L1.74863 17.0492C4.5173 11.439 8.19672 7.21311 12.7869 4.37158C17.377 1.45719 22.8051 0 29.071 0C32.8597 0 36.3206 0.54645 39.4535 1.63935C42.5865 2.65938 45.2459 4.11658 47.4317 6.01093C49.6903 7.90528 51.439 10.2004 52.6776 12.8962C53.9162 15.592 54.5355 18.5792 54.5355 21.8579C54.5355 26.0109 53.5519 29.5811 51.5847 32.5683C49.6175 35.4827 46.8852 37.6321 43.388 39.0164C47.4681 40.4736 50.5647 42.7322 52.6776 45.7924C54.8634 48.8525 55.9563 52.5683 55.9563 56.9399C55.9563 60.3643 55.2641 63.4973 53.8798 66.3388C52.5683 69.1803 50.7104 71.6211 48.306 73.6612C45.9016 75.6284 43.0237 77.1585 39.6721 78.2514C36.3206 79.4171 32.6047 80 28.5246 80Z" fill="white"/>
</svg>
