<svg width="172" height="103" viewBox="0 0 172 103" fill="none" xmlns="http://www.w3.org/2000/svg">
<path d="M94.0524 63.34H105.532C105.532 73.8867 107.819 81.4 112.392 85.88C117.059 90.36 124.479 92.6 134.652 92.6C151.639 92.6 160.132 85.74 160.132 72.02C160.132 59.98 153.786 53.96 141.092 53.96H127.372V44.16H141.092C152.852 44.16 158.732 38.98 158.732 28.62C158.732 16.6734 150.706 10.7 134.652 10.7C124.852 10.7 117.759 12.66 113.372 16.58C109.079 20.4067 106.932 26.4267 106.932 34.64H95.4524C95.4524 23.6267 98.8124 15.2734 105.532 9.58002C112.252 3.79336 121.959 0.900024 134.652 0.900024C146.132 0.900024 154.906 3.32669 160.972 8.18002C167.132 12.94 170.212 19.24 170.212 27.08C170.212 38.6534 163.866 45.42 151.172 47.38V50.6C157.986 52 163.072 54.4267 166.432 57.88C169.886 61.24 171.612 66.5134 171.612 73.7C171.612 82.5667 168.392 89.5667 161.952 94.7C155.512 99.8334 146.412 102.4 134.652 102.4C107.586 102.4 94.0524 89.38 94.0524 63.34Z" fill="white"/>
<path d="M0.400024 63.34H11.88C11.88 73.8867 14.1667 81.4 18.74 85.88C23.4067 90.36 30.8267 92.6 41 92.6C57.9867 92.6 66.48 85.74 66.48 72.02C66.48 59.98 60.1334 53.96 47.44 53.96H33.72V44.16H47.44C59.2 44.16 65.08 38.98 65.08 28.62C65.08 16.6734 57.0534 10.7 41 10.7C31.2 10.7 24.1067 12.66 19.72 16.58C15.4267 20.4067 13.28 26.4267 13.28 34.64H1.80002C1.80002 23.6267 5.16002 15.2734 11.88 9.58002C18.6 3.79336 28.3067 0.900024 41 0.900024C52.48 0.900024 61.2534 3.32669 67.32 8.18002C73.48 12.94 76.56 19.24 76.56 27.08C76.56 38.6534 70.2134 45.42 57.52 47.38V50.6C64.3334 52 69.42 54.4267 72.78 57.88C76.2334 61.24 77.96 66.5134 77.96 73.7C77.96 82.5667 74.74 89.5667 68.3 94.7C61.86 99.8334 52.76 102.4 41 102.4C13.9334 102.4 0.400024 89.38 0.400024 63.34Z" fill="white"/>
</svg>
