<svg width="410" height="213" viewBox="0 0 410 213" fill="none" xmlns="http://www.w3.org/2000/svg">
<path d="M26.536 94.588H72.546V36.38L26.536 94.588ZM72.546 153.224V119.84H0V89.452L67.838 3.42399H100.366V94.588H120.91V119.84H100.366V153.224H72.546Z" fill="url(#paint0_linear_1116_1291)"/>
<path d="M270.147 78.324C270.147 90.1653 268.577 100.937 265.439 110.638C262.443 120.197 258.091 128.4 252.385 135.248C246.821 142.096 240.044 147.375 232.055 151.084C224.208 154.793 215.434 156.648 205.733 156.648C196.031 156.648 187.186 154.793 179.197 151.084C171.35 147.375 164.645 142.096 159.081 135.248C153.517 128.4 149.165 120.197 146.027 110.638C143.031 100.937 141.533 90.1653 141.533 78.324C141.533 66.4827 143.031 55.7827 146.027 46.224C149.165 36.5227 153.517 28.248 159.081 21.4C164.645 14.552 171.35 9.27333 179.197 5.56399C187.186 1.85466 196.031 0 205.733 0C215.434 0 224.208 1.85466 232.055 5.56399C240.044 9.27333 246.821 14.552 252.385 21.4C258.091 28.248 262.443 36.5227 265.439 46.224C268.577 55.7827 270.147 66.4827 270.147 78.324ZM171.493 78.324C171.493 93.8747 174.489 106.144 180.481 115.132C186.615 123.977 195.033 128.4 205.733 128.4C216.575 128.4 224.993 123.977 230.985 115.132C237.119 106.144 240.187 93.8747 240.187 78.324C240.187 62.7733 237.119 50.5753 230.985 41.73C224.993 32.742 216.575 28.248 205.733 28.248C195.033 28.248 186.615 32.742 180.481 41.73C174.489 50.5753 171.493 62.7733 171.493 78.324Z" fill="url(#paint1_linear_1116_1291)"/>
<path d="M315.143 94.588H361.153V36.38L315.143 94.588ZM361.153 153.224V119.84H288.607V89.452L356.445 3.42399H388.973V94.588H409.517V119.84H388.973V153.224H361.153Z" fill="url(#paint2_linear_1116_1291)"/>
<path d="M234.322 97.648C238.402 97.648 241.252 100.904 241.744 104.336C243.146 114.116 250.918 121.889 260.699 123.291C264.131 123.783 267.387 126.633 267.387 130.712C267.387 134.792 264.131 137.642 260.699 138.134C250.918 139.536 243.146 147.309 241.744 157.089C241.252 160.521 238.402 163.777 234.322 163.777C230.243 163.777 227.392 160.521 226.9 157.089C225.499 147.309 217.727 139.536 207.946 138.134C204.514 137.643 201.258 134.792 201.258 130.712C201.258 126.633 204.514 123.782 207.946 123.291C217.727 121.889 225.499 114.117 226.9 104.336V104.336C227.392 100.904 230.243 97.648 234.322 97.648ZM234.322 125.84C232.763 125.84 231.46 126.376 230.723 127.113C229.986 127.85 229.45 129.153 229.45 130.712C229.45 132.272 229.986 133.575 230.723 134.312C231.46 135.049 232.763 135.585 234.322 135.586C235.882 135.586 237.185 135.049 237.922 134.312C238.659 133.575 239.195 132.272 239.195 130.712C239.195 129.153 238.659 127.85 237.922 127.113C237.185 126.376 235.882 125.84 234.322 125.84Z" fill="#20CCC3" stroke="white" stroke-width="7"/>
<path d="M224.879 139.731C219.664 134.548 219.717 126.039 224.9 120.824C230.084 115.609 238.592 115.504 243.807 120.687C249.022 125.87 248.969 134.379 243.786 139.594C238.603 144.809 230.094 144.914 224.879 139.731Z" fill="#20CCC3"/>
<path d="M289.031 180.333C288.869 179.206 287.961 178.277 286.822 178.277C285.683 178.277 284.775 179.206 284.614 180.333C283.708 186.651 278.696 191.663 272.379 192.568C271.251 192.73 270.322 193.638 270.322 194.777C270.322 195.916 271.251 196.824 272.379 196.986C278.696 197.891 283.708 202.903 284.614 209.221C284.775 210.348 285.683 211.277 286.822 211.277C287.961 211.277 288.869 210.348 289.031 209.221C289.936 202.903 294.949 197.891 301.266 196.986C302.394 196.824 303.322 195.916 303.322 194.777C303.322 193.638 302.394 192.73 301.266 192.568C294.949 191.663 289.936 186.651 289.031 180.333ZM290.213 198.167C288.503 199.877 285.142 199.877 283.432 198.167C281.722 196.457 281.722 193.097 283.432 191.387C285.142 189.677 288.503 189.677 290.213 191.387C291.922 193.097 291.922 196.457 290.213 198.167Z" fill="#0AADD8"/>
<path d="M281.553 199.81C278.643 196.918 278.672 192.169 281.565 189.258C284.458 186.348 289.206 186.289 292.117 189.182C295.028 192.074 294.998 196.823 292.105 199.734C289.212 202.644 284.464 202.703 281.553 199.81Z" fill="#0AADD8"/>
<defs>
<linearGradient id="paint0_linear_1116_1291" x1="-36.0765" y1="61.949" x2="470.752" y2="160.086" gradientUnits="userSpaceOnUse">
<stop stop-color="#84EBDA"/>
<stop offset="1" stop-color="#B7D8F8"/>
</linearGradient>
<linearGradient id="paint1_linear_1116_1291" x1="-36.0765" y1="61.949" x2="470.752" y2="160.086" gradientUnits="userSpaceOnUse">
<stop stop-color="#84EBDA"/>
<stop offset="1" stop-color="#B7D8F8"/>
</linearGradient>
<linearGradient id="paint2_linear_1116_1291" x1="-36.0765" y1="61.949" x2="470.752" y2="160.086" gradientUnits="userSpaceOnUse">
<stop stop-color="#84EBDA"/>
<stop offset="1" stop-color="#B7D8F8"/>
</linearGradient>
</defs>
</svg>
