<svg width="87" height="87" viewBox="0 0 87 87" fill="none" xmlns="http://www.w3.org/2000/svg">
<circle cx="43.5" cy="43.5" r="43.5" fill="#3EB3BC"/>
<path d="M9.40227 51C9.46227 48.46 9.50227 45.78 9.50227 43.38C9.50227 41.14 9.46227 38.44 9.40227 35.74H22.3023C22.2423 38.26 22.2423 40.98 22.2423 43.38C22.2423 46.08 22.2423 48.64 22.3023 51H18.6423C18.7223 48.46 18.7423 45.76 18.7423 43.36C18.7423 41.5 18.7223 39.66 18.6823 37.94H13.0423L13.0023 43.36C13.0023 45.82 13.0223 48.44 13.0623 51H9.40227ZM30.3009 51.22C26.1609 51.22 23.8409 48.94 23.8409 44.54C23.8409 40.14 26.1609 37.86 30.3009 37.86C34.4409 37.86 36.7409 40.14 36.7409 44.54C36.7409 48.94 34.4409 51.22 30.3009 51.22ZM30.5009 48.62C31.3409 48.62 32.0609 48.46 32.8209 47.98C33.0209 46.9 33.1209 45.84 33.1209 44.5C33.1209 41.76 32.2409 40.46 30.1009 40.46C29.2409 40.46 28.5209 40.62 27.7609 41.1C27.5609 42.22 27.4609 43.24 27.4609 44.58C27.4609 47.32 28.3409 48.62 30.5009 48.62ZM43.949 51.22C39.989 51.22 37.669 48.94 37.669 44.54C37.669 40.14 39.989 37.86 44.029 37.86C47.749 37.86 49.709 39.48 50.149 43L46.709 43.36C46.429 41.24 45.589 40.38 43.829 40.38C42.989 40.38 42.289 40.54 41.549 41.02C41.369 42.2 41.269 43.28 41.269 44.66C41.269 47.46 42.149 48.7 44.129 48.7C44.949 48.7 45.649 48.58 46.389 48.22C46.509 47.38 46.609 46.64 46.649 45.86H50.169C49.829 49.42 47.769 51.22 43.949 51.22ZM59.747 51C59.847 48.38 59.847 43.38 59.747 40.52H55.327V46.28C55.327 49.7 54.347 51.16 50.947 51.16V47.68C52.687 47.68 53.147 47.12 53.147 45.5C53.147 43.56 53.107 40.68 53.047 38.12H63.387C63.307 40.14 63.267 42.38 63.267 44.38C63.267 46.38 63.307 49 63.387 51H59.747ZM71.0788 51.22C67.0788 51.22 64.7588 48.94 64.7588 44.54C64.7588 40.14 67.0788 37.86 71.0788 37.86C74.8788 37.86 77.1588 39.94 77.2188 44.16L68.3588 44.84C68.3988 47.5 69.2588 48.7 71.2588 48.7C72.0788 48.7 72.6988 48.52 73.3588 48.24C73.5388 47.38 73.6188 46.68 73.6588 45.9H77.1388C76.7588 49.56 74.5788 51.22 71.0788 51.22ZM68.3988 43.3L73.6588 42.88C73.3588 41.16 72.4988 40.38 70.8788 40.38C70.0588 40.38 69.3588 40.54 68.6388 41.02C68.5188 41.72 68.4388 42.5 68.3988 43.3Z" fill="white"/>
</svg>
