<svg width="90" height="89" viewBox="0 0 90 89" fill="none" xmlns="http://www.w3.org/2000/svg">
<path d="M48.2786 68.3274C49.9082 63.5809 51.5442 58.8168 52.7794 53.947C53.8884 49.5782 54.7757 45.0611 54.6127 40.5335C54.4686 36.4041 53.2114 32.3931 50.5735 29.1701C49.7805 28.199 48.8782 27.3199 47.9203 26.5165C47.3351 29.071 46.4614 31.5406 45.1589 33.8384C42.7222 38.1357 38.7471 41.8099 33.7822 42.7804C29.4021 43.6359 24.781 42.1997 22.467 38.1959C20.2831 34.4271 20.5997 29.2831 23.0932 25.7412C25.9262 21.7157 30.7422 19.6609 35.5516 19.3927C39.1423 19.1926 42.6742 20.0772 45.8175 21.723C45.9209 20.7463 46.0065 19.7751 46.0445 18.8026C46.2934 13.3067 45.9796 7.76587 45.1941 2.32517C44.9339 0.525489 47.7002 -0.142029 47.9659 1.6756C48.7664 7.21763 49.1248 12.8665 48.9087 18.4702C48.847 20.1009 48.7019 21.7413 48.4741 23.3675C52.0901 25.9758 54.9348 29.6734 56.3345 33.9078C58.0966 39.2323 57.5428 45.0288 56.4772 50.4315C55.2249 56.8205 53.1058 62.9903 50.9935 69.1306C50.413 70.8483 47.6798 70.0624 48.2786 68.3274ZM41.0556 22.871C37.0851 21.7431 32.6902 22.0462 29.0615 24.0973C25.6015 26.058 23.3719 29.7199 23.9279 33.7594C24.4693 37.6858 27.4924 40.2663 31.4538 40.1889C35.7894 40.1038 39.5171 37.2422 41.8483 33.773C43.691 31.0327 44.7716 27.9395 45.3801 24.7385C44.0305 23.9365 42.5815 23.2979 41.0556 22.871Z" fill="black"/>
<path d="M40.8992 86.8805L42.0598 60.9715C42.1389 59.1394 44.9861 59.216 44.9071 61.0481L43.9282 82.8544C48.4152 77.5853 52.9019 72.3281 57.3828 67.0648C58.5719 65.6722 60.5164 67.7487 59.3395 69.1298C53.9885 75.4025 48.6432 81.6813 43.2922 87.9541C42.477 88.9116 40.8445 88.0306 40.8992 86.8805Z" fill="black"/>
</svg>
