<svg width="87" height="87" viewBox="0 0 87 87" fill="none" xmlns="http://www.w3.org/2000/svg">
<circle cx="43.5" cy="43.5" r="43.5" fill="#FB4B68"/>
<path d="M29.1405 53.64C29.1405 51.44 29.1205 50.22 29.0405 48.44H30.7005C31.8205 47.02 31.9805 45.22 31.9805 43.26C31.9805 40.54 31.9805 38.32 31.8805 35.74H42.5605C42.4805 37.84 42.4405 40.72 42.4405 43.1C42.4405 44.56 42.4805 46.56 42.5005 48.44H44.3205C44.2405 50.54 44.2405 51.66 44.2405 53.64H41.8205L41.8005 51H31.5805C31.5605 51.9 31.5605 52.76 31.5805 53.64H29.1405ZM38.9405 48.44C38.9805 46.6 39.0005 44.72 39.0005 43.32C39.0005 41.86 38.9805 39.94 38.9405 38.3H34.4805V43.74C34.4805 46.4 33.7805 47.48 32.2605 48.24V48.44H38.9405ZM51.6114 51.22C47.4714 51.22 45.1514 48.94 45.1514 44.54C45.1514 40.14 47.4714 37.86 51.6114 37.86C55.7514 37.86 58.0514 40.14 58.0514 44.54C58.0514 48.94 55.7514 51.22 51.6114 51.22ZM51.8114 48.62C52.6514 48.62 53.3714 48.46 54.1314 47.98C54.3314 46.9 54.4314 45.84 54.4314 44.5C54.4314 41.76 53.5514 40.46 51.4114 40.46C50.5514 40.46 49.8314 40.62 49.0714 41.1C48.8714 42.22 48.7714 43.24 48.7714 44.58C48.7714 47.32 49.6514 48.62 51.8114 48.62Z" fill="white"/>
</svg>
