<svg width="727" height="591" viewBox="0 0 727 591" fill="none" xmlns="http://www.w3.org/2000/svg">
<g clip-path="url(#clip0_916_1632)">
<g clip-path="url(#clip1_916_1632)">
<path d="M702.445 0C673.109 72.1092 606.064 124.987 525.935 133.988V70.9072H271.68C271.171 70.9072 270.663 70.9247 270.145 70.9247V0H247.344V72.1267C192.559 77.6189 141.755 101.623 102.3 141.095C57.0564 186.357 32.1413 246.535 32.1413 310.546C32.1413 327.663 33.9392 344.499 37.412 360.853C32.2027 360.502 26.9584 360.309 21.6877 360.309C14.4 360.309 7.16492 360.66 -0.00878906 361.335V384.269C7.12107 383.515 14.3562 383.12 21.6877 383.12C29.0193 383.12 36.4386 383.532 43.6561 384.304C55.1533 420.004 75.0257 452.711 102.3 479.997C135.511 513.222 176.764 535.471 221.666 544.964C224.604 558.747 226.165 573.031 226.165 587.673C226.165 591.472 226.051 595.245 225.849 599H248.694C248.879 595.245 248.966 591.464 248.966 587.673C248.966 574.504 247.852 561.502 245.669 548.781C254.246 549.702 262.928 550.184 271.68 550.184H525.935V156.949C580.72 151.456 631.523 127.452 670.978 87.9804C696.279 62.6689 715.213 32.6987 727 0L702.445 0ZM69.5534 388.788C137.098 405.054 191.682 454.948 214.553 519.705C148.07 501.509 94.2316 452.369 69.5534 388.788ZM503.133 527.373H271.68C261.016 527.373 250.536 526.584 240.275 525.092C229.822 488.349 210.142 454.668 182.395 426.908C149.017 393.517 107.088 371.802 61.5553 363.783C57.2406 346.745 54.9341 328.909 54.9341 310.546C54.9341 199.219 139.238 107.229 247.335 95.0957V158.177H501.589C502.098 158.177 502.607 158.159 503.124 158.159V527.373H503.133ZM503.133 135.34C502.624 135.34 502.116 135.357 501.598 135.357H270.145V93.727C270.654 93.727 271.163 93.7094 271.68 93.7094H503.133V135.34Z" fill="white" fill-opacity="0.44"/>
</g>
</g>
<defs>
<clipPath id="clip0_916_1632">
<rect width="727" height="599" fill="white"/>
</clipPath>
<clipPath id="clip1_916_1632">
<rect width="727" height="599" fill="white"/>
</clipPath>
</defs>
</svg>
