<svg width="80" height="80" viewBox="0 0 80 80" fill="none" xmlns="http://www.w3.org/2000/svg">
<circle cx="40" cy="40" r="40" fill="#E5F4F3" fill-opacity="0.59"/>
<g clip-path="url(#clip0_455_20)">
<path d="M53.9986 44.6488V27.2496C53.9986 23.2522 50.7464 20 46.7489 20H32.2496C28.2522 20 25 23.2522 25 27.2496V44.6488C25.0028 46.307 25.5733 47.9143 26.6166 49.2032C27.66 50.4922 29.1132 51.385 30.7345 51.7331L26.6631 58.3912C26.5616 58.5537 26.4934 58.7348 26.4624 58.9239C26.4313 59.1129 26.4381 59.3063 26.4822 59.4927C26.5263 59.6792 26.607 59.8551 26.7195 60.0102C26.832 60.1653 26.9742 60.2965 27.1377 60.3963C27.3012 60.4962 27.483 60.5626 27.6723 60.5918C27.8617 60.621 28.055 60.6123 28.241 60.5664C28.427 60.5204 28.6021 60.438 28.756 60.324C28.91 60.2099 29.0399 60.0665 29.1381 59.902L30.4865 57.6967H48.5135L49.8619 59.902C49.9607 60.0651 50.0907 60.2071 50.2445 60.3197C50.3984 60.4323 50.573 60.5134 50.7583 60.5583C50.9436 60.6032 51.1359 60.611 51.3242 60.5812C51.5126 60.5514 51.6931 60.4847 51.8556 60.3848C52.0181 60.2856 52.1595 60.1552 52.2717 60.0013C52.3838 59.8474 52.4646 59.6729 52.5093 59.4877C52.554 59.3026 52.5618 59.1105 52.5322 58.9223C52.5026 58.7342 52.4363 58.5537 52.3369 58.3912L48.2655 51.7331C49.8868 51.385 51.34 50.4922 52.3834 49.2032C53.4267 47.9143 53.9958 46.307 53.9986 44.6488ZM27.8999 35.9492V27.2496C27.8999 26.4805 28.2054 25.743 28.7492 25.1991C29.293 24.6553 30.0306 24.3498 30.7997 24.3498H38.0493V37.3991H29.3498C28.9652 37.3991 28.5964 37.2464 28.3245 36.9745C28.0526 36.7025 27.8999 36.3337 27.8999 35.9492ZM29.3498 45.3737C29.35 44.7967 29.5794 44.2434 29.9875 43.8356C30.3957 43.4277 30.9491 43.1987 31.5261 43.1988C32.1031 43.199 32.6564 43.4284 33.0643 43.8366C33.4722 44.2447 33.7012 44.7982 33.701 45.3752C33.7008 45.9522 33.4714 46.5055 33.0633 46.9134C32.6551 47.3212 32.1017 47.5503 31.5247 47.5501C30.9477 47.5499 30.3944 47.3205 29.9865 46.9123C29.5786 46.5042 29.3496 45.9507 29.3498 45.3737ZM32.2598 54.7983L34.033 51.8984H44.967L46.7402 54.7983H32.2598ZM47.4739 47.5486C47.1882 47.5485 46.9053 47.4922 46.6414 47.3827C46.3774 47.2733 46.1377 47.113 45.9357 46.9109C45.7337 46.7088 45.5736 46.4689 45.4643 46.2049C45.3551 45.9409 45.2989 45.658 45.299 45.3723C45.2991 45.0866 45.3554 44.8037 45.4649 44.5398C45.5743 44.2758 45.7346 44.0361 45.9367 43.8341C46.1388 43.6321 46.3787 43.472 46.6427 43.3627C46.9067 43.2535 47.1896 43.1973 47.4753 43.1974C48.0523 43.1976 48.6056 43.427 49.0135 43.8351C49.4214 44.2433 49.6504 44.7967 49.6502 45.3737C49.65 45.9507 49.4206 46.504 49.0125 46.9119C48.6043 47.3198 48.0509 47.5488 47.4739 47.5486ZM51.0987 35.9492C51.0987 36.3337 50.9459 36.7025 50.674 36.9745C50.4021 37.2464 50.0333 37.3991 49.6488 37.3991H40.9492V24.3498H48.1988C48.9679 24.3498 49.7055 24.6553 50.2493 25.1991C50.7932 25.743 51.0987 26.4805 51.0987 27.2496V35.9492Z" fill="#3EB3BC"/>
</g>
<defs>
<clipPath id="clip0_455_20">
<rect width="29" height="40.6886" fill="white" transform="translate(25 20)"/>
</clipPath>
</defs>
</svg>
