<svg width="80" height="80" viewBox="0 0 80 80" fill="none" xmlns="http://www.w3.org/2000/svg">
<circle cx="40" cy="40" r="40" fill="#E5F4F3" fill-opacity="0.59"/>
<path d="M35.08 40.92H41.16C42.6 40.92 43.76 40.48 44.64 39.6C45.52 38.72 45.96 37.5733 45.96 36.16C45.96 34.7467 45.52 33.6 44.64 32.72C43.76 31.84 42.6 31.4 41.16 31.4H35.08V40.92ZM30.28 55V27H41.44C42.8533 27 44.1333 27.2267 45.28 27.68C46.4267 28.1067 47.4133 28.72 48.24 29.52C49.0933 30.32 49.7467 31.2933 50.2 32.44C50.6533 33.56 50.88 34.8 50.88 36.16C50.88 37.5467 50.6533 38.8 50.2 39.92C49.7467 41.04 49.0933 42 48.24 42.8C47.4133 43.6 46.4267 44.2267 45.28 44.68C44.1333 45.1067 42.8533 45.32 41.44 45.32H35.08V55H30.28Z" fill="#3EB3BC"/>
</svg>
