<?xml version="1.0" encoding="UTF-8"?>
<svg id="_Слой_2" data-name="Слой 2" xmlns="http://www.w3.org/2000/svg" viewBox="0 0 777 888">
  <defs>
    <style>
      .cls-1 {
        fill: #fcfdfd;
      }

      .cls-2 {
        opacity: .5;
      }
    </style>
  </defs>
  <g id="_Слой_1-2" data-name="Слой 1">
    <g class="cls-2">
      <path class="cls-1" d="M749,0c.45,7.9-1.65,15.7-4.19,23.64-11.77,36.71-40.45,67.92-71.25,90.03-29.06,20.86-53.86,34.11-87.88,46.14-56.32,19.91-100.68,25.95-160.13,28.89-50.52,2.5-115.28,6.24-163.19,22-22.81,7.51-43.99,17.95-62.91,32.89-41.62,32.87-68.61,84.4-82.74,134.84-19.35,69.08-16.56,134.11-3.81,203.43.45,1.01.79,2.86,1.01,4.3l.98,6.71c.63.89,1,2.9.99,4.31l.05,1.67c1.5,2.68,1.34,6.29,1.92,9.34l14.66,76.44c8.18,42.62,13.45,84.83,14.5,128.29.63,26.07-2.81,50.67-9.08,75.08h28.57c11.72-52.55,8.82-94.4,2.53-147.6-1.56-13.17-2.93-25.55-5.42-38.58l-7.7-40.28-8.62-43.82-5.58-28.98-6.51-41.07c-4.81-30.32-5.77-60.63-4.07-91.65,1.52-27.61,6.84-53.65,14.91-79.95,4.51-14.69,10.5-28.2,17-41.88,7.47-15.73,16.39-29.28,27.22-42.89,33.2-41.73,78.81-58.09,130.35-65.82,23.88-3.58,47.17-6.02,71.36-7.37l48.68-2.72c26.99-1.51,52.97-4.14,79.73-9.33,35.89-6.96,70.43-17.39,103.89-31.98,23.07-10.06,43.54-22.75,64.09-36.89,8.36-6.61,16.37-12.49,24.25-19.56,34.07-30.55,61.67-71.4,64.4-117.63h-28Z"/>
      <path class="cls-1" d="M89.74,172.64c23.76-21.2,51.23-36.5,81-48.1,20.08-7.82,40.35-12.38,61.62-16.19l82.46-14.77c56.98-10.21,110.54-22.34,158.27-56.5,12.79-9.16,23.55-20.59,32.66-33.2.61-.85,1.18-3.2,1.26-3.89h-35c-.81,2.13-2.54,4.54-4.69,6.41-37.99,33.11-92.03,48.16-141.05,57.02l-104.82,18.93c-41.76,7.54-81,21.67-116.61,44.46-37.84,24.22-65.29,52.03-79.23,95.74-9.62,30.15-13.45,60.55-12.78,92.57,1.42,67.84,11.65,134.13,28.38,199.82,15.21,59.71,31.05,144.01-5.29,197.86-5.83,8.64-27.05,36.89-35.92,39.2v35c17.96-9.71,32.01-24.8,45.43-40.62,23.12-27.26,36.37-59.94,39.09-95.86,2.28-30.14,0-59.76-5.21-89.54-2.67-15.3-6.14-29.27-9.57-44.41l-13.93-61.5c-6.22-27.47-11.11-71.02-13.61-99.49-1.35-15.39-1.58-30.03-1.77-45.62-.32-26.86,3.02-52.74,11.05-78.3,7.27-23.12,20.11-42.81,38.26-59.01Z"/>
      <path class="cls-1" d="M60.91,81.89c16.94-5.74,32.61-12.64,47.81-22.22,10.83-6.82,21.17-13.71,30.4-22.5,11.52-10.96,21.97-22.99,27.88-37.17h-33c.33,4.44-15.48,18.92-19.72,22.32C81.34,48.72,40.55,62.05,0,69v27c11.61-.35,23.08-3.43,34.93-6.12,9-2.04,17.23-5.03,25.97-7.99Z"/>
    </g>
  </g>
</svg>