<svg width="99" height="111" viewBox="0 0 99 111" fill="none" xmlns="http://www.w3.org/2000/svg">
<path d="M33.5218 3.68443C33.2323 1.66407 31.6055 0 29.5645 0C27.5235 0 25.8967 1.66407 25.6072 3.68443C23.9853 15.004 15.004 23.9853 3.68444 25.6072C1.66407 25.8967 0 27.5235 0 29.5645C0 31.6055 1.66407 33.2323 3.68444 33.5218C15.004 35.1438 23.9853 44.1251 25.6072 55.4446C25.8967 57.465 27.5235 59.1291 29.5645 59.1291C31.6055 59.1291 33.2323 57.465 33.5218 55.4446C35.1438 44.1251 44.1251 35.1438 55.4446 33.5218C57.465 33.2323 59.129 31.6055 59.129 29.5645C59.129 27.5235 57.465 25.8967 55.4446 25.6072C44.1251 23.9853 35.1438 15.004 33.5218 3.68443ZM35.6391 35.6391C32.5752 38.703 26.5538 38.703 23.4899 35.6391C20.4261 32.5752 20.4261 26.5538 23.4899 23.4899C26.5538 20.4261 32.5752 20.4261 35.6391 23.4899C38.703 26.5538 38.703 32.5752 35.6391 35.6391Z" fill="#20CCC3"/>
<path d="M20.1219 38.5832C14.9067 33.3999 14.9598 24.891 20.1431 19.6759C25.3263 14.4608 33.8347 14.3556 39.0498 19.5389C44.265 24.7222 44.2119 33.2311 39.0286 38.4462C33.8454 43.6613 25.337 43.7664 20.1219 38.5832Z" fill="#20CCC3"/>
<path d="M84.2731 79.1852C84.1115 78.0576 83.2036 77.1289 82.0645 77.1289C80.9254 77.1289 80.0175 78.0576 79.8559 79.1852C78.9507 85.5027 73.9382 90.5152 67.6208 91.4204C66.4932 91.582 65.5645 92.4899 65.5645 93.629C65.5645 94.7681 66.4932 95.676 67.6208 95.8376C73.9382 96.7428 78.9507 101.755 79.8559 108.073C80.0175 109.2 80.9254 110.129 82.0645 110.129C83.2036 110.129 84.1115 109.2 84.2731 108.073C85.1783 101.755 90.1908 96.7428 96.5083 95.8376C97.6359 95.676 98.5646 94.7681 98.5646 93.629C98.5646 92.4899 97.6359 91.582 96.5083 91.4204C90.1908 90.5152 85.1783 85.5027 84.2731 79.1852ZM85.4548 97.0192C83.7448 98.7292 80.3842 98.7292 78.6743 97.0192C76.9643 95.3093 76.9643 91.9487 78.6743 90.2387C80.3842 88.5288 83.7448 88.5288 85.4548 90.2387C87.1647 91.9487 87.1647 95.3093 85.4548 97.0192Z" fill="#0AADD8"/>
<path d="M76.7945 98.6623C73.884 95.7695 73.9136 91.0207 76.8064 88.1101C79.6992 85.1995 84.4477 85.1408 87.3583 88.0336C90.2689 90.9264 90.2393 95.6753 87.3465 98.5859C84.4537 101.496 79.7051 101.555 76.7945 98.6623Z" fill="#0AADD8"/>
</svg>
