<?xml version="1.0" encoding="UTF-8"?>
<svg id="_Слой_2" data-name="Слой 2" xmlns="http://www.w3.org/2000/svg" viewBox="0 0 461.06 634.6">
  <defs>
    <style>
      .cls-1 {
        fill: #fcfdfd;
      }

      .cls-2 {
        opacity: .5;
      }
    </style>
  </defs>
  <g id="_Слой_1-2" data-name="Слой 1">
    <g class="cls-2">
      <path class="cls-1" d="M129.16,535.63c-6.66-41.54-22.16-81.18-38.17-119.87l-26.45-63.93c-14.49-35.03-25.3-70.53-32.46-107.87-4.27-22.29-4.93-44.22-4.12-66.21-1.1-1.54-1.05-3.9.17-5.33,4.21-53.44,27.76-102.07,77.78-127.03,36.76-18.35,93.83-27.3,129.97-3.81,25.1,16.31,42.4,43.23,56.05,69.1l10.44,19.79c16.04,30.42,40.61,74.09,65.68,97.15,9.77,8.99,19.35,16.53,31.29,22.72,19.2,9.96,40.42,15.45,61.73,15.25v-28c-36.76,1.04-65.47-17.58-88.26-45.72-11.74-14.5-21.47-29.37-30.37-45.79l-29.55-54.51c-12.08-22.28-26.21-42.63-44.74-59.89C241.29,6.68,207.34-1.95,171.06.36,74.08,6.54,8.71,70.97,1.1,167.58c-1.47,18.72-1.56,36.33.34,55.14,7.09,70.12,36.47,138.17,63.73,202.72,16.9,40.02,37.42,92.88,38.9,136.13.63,18.35.09,36.5-6.23,53.52l-7.24,19.5h29.93c11-32.16,14.16-64.44,8.62-98.97Z"/>
      <path class="cls-1" d="M244.36,482.17l-14.69-50.27c-4.51-15.42-7.39-30.54-10.53-46.35-6.59-33.18-11.34-81.59,4.94-112.1,3.99-7.47,12.99-17.92,21.77-20.1,26.56-6.6,52.87,18.01,69.16,36.26,14.4,16.13,27.44,32.44,39.85,50.17,29.53,42.16,55.34,81.22,106.19,97.81v-30c-29.72-8.67-56.89-45.48-74.43-70.7-17.39-25-35.07-48.76-55.86-70.92-24.13-25.71-57.21-49.64-94.25-38.64-24.54,7.29-40.33,33.72-46.06,57.64-5.19,21.69-6.02,43.27-4.03,65.69,4.13,46.44,17.02,92.47,30.75,136.91l17.04,55.19c5.6,18.12,11.35,35.58,14.65,53.79.17.03,1.17.33,1.05.59l-.69,1.47.13,2.72c1.68-.03,1.89,2.81,1.52,4.46l.05,2.65,1.2.67c.46.26-.7,1.43-.94,1.53.14,2.24.17,5.67.75,7.8,1.4,5.1,1.23,10.64,1.13,16.13h27c.22-27.35-6.21-56.85-14.46-83.57l-21.24-68.85Z"/>
      <path class="cls-1" d="M398.91,616.62c-9.31-30.74-14.84-61.72-15.3-93.95-.1-6.94.63-13.44,2.45-19.77,1.5-5.21,5.75-7.09,11.09-6.8,13.35.72,26.19,4.25,38.31,9.91l18.48,8.63c2.52,1.18,4.82,2.27,7.12,2.96v-31c-1.53-.22-3.59-.7-5.29-1.48-12.93-5.97-25.72-11.52-39.76-14.18-9.26-1.76-18.43-3.21-27.48-1.72-11.71,1.92-21.16,8.87-26.23,19.57-15.31,32.33.26,98.2,9.22,132.34l3.54,13.48h27.99c-.97-5.87-2.24-11.67-4.15-17.98Z"/>
    </g>
  </g>
</svg>