<svg width="106" height="117" viewBox="0 0 106 117" fill="none" xmlns="http://www.w3.org/2000/svg">
<path d="M73.9056 0.0184458C74.8592 -0.00861943 75.8129 -0.00579813 76.7663 0.0262351C76.7665 0.0262439 76.7666 0.0265611 76.7665 0.0267465C76.7663 0.0269319 76.7664 0.0272491 76.7667 0.0272579L88.2389 0.409048C88.2392 0.409057 88.2393 0.409374 88.2391 0.409559C88.2389 0.409744 88.239 0.410061 88.2393 0.410069C88.591 0.421684 89.3431 0.428087 90.6312 0.411024L101.024 0.271162C101.576 0.26373 102.03 0.705474 102.037 1.25777L102.194 13.0526C102.196 13.1841 102.221 13.3087 102.272 13.4299C102.934 14.9968 107.652 26.388 105.148 26.9325C102.458 27.5173 105.05 26.953 105.05 26.953L103.829 27.2162C103.764 27.2302 103.698 27.2376 103.632 27.2385L90.9916 27.4081C89.6031 27.4265 88.3396 27.4276 87.3402 27.3944H87.3373L75.8627 27.0106H75.8597C75.4639 26.9973 75.0676 26.9965 74.6712 27.0077H74.6693L63.1962 27.3309C63.1952 27.3309 63.1942 27.3311 63.1932 27.3314C63.1923 27.3318 63.1912 27.3319 63.1902 27.332C62.408 27.3539 61.6257 27.3659 60.8431 27.369H60.8402L49.3656 27.413H49.3627C48.6441 27.4156 47.9253 27.4144 47.2064 27.41H47.2035L35.7289 27.3378H35.7259C34.9777 27.3329 34.2293 27.3226 33.4808 27.3056H33.4779L28.7316 27.1956C28.1378 27.1818 27.663 27.6856 27.7118 28.2775L27.9017 30.58C27.9766 31.4874 28.0271 32.3963 28.0541 33.3065L28.3968 44.7763L28.4252 45.4354C28.4375 45.6543 28.4531 45.873 28.4711 46.0917L29.4173 57.5282L29.5101 58.7821C29.5371 59.1995 29.56 59.6172 29.5795 60.035L30.1156 71.494L30.1644 72.6327C30.1786 73.0108 30.1908 73.3891 30.2015 73.7675L30.5287 85.2382L30.555 85.87C30.567 86.0794 30.5822 86.2887 30.6 86.4979L31.5785 97.9325L31.6312 98.5975C31.6802 99.2612 31.7181 99.9256 31.7435 100.591L32.183 112.056L32.1947 112.381L32.3087 113.071C32.3186 113.131 32.323 113.192 32.3219 113.252L32.3011 114.384C32.3001 114.439 32.2542 114.483 32.1986 114.482L18.8011 114.235L18.3475 114.226C18.2868 114.225 18.226 114.229 18.1661 114.239L5.70453 116.282C5.58091 116.302 5.46422 116.218 5.44371 116.095L5.38512 115.733L5.34508 115.37L5.3109 115.049L5.30602 115.002C5.2459 114.41 5.2107 113.31 5.2025 113.098V113.094L4.76305 101.626V101.622C4.74551 101.161 4.71654 100.701 4.67711 100.242V100.238L3.69877 88.8017C3.69865 88.8004 3.69843 88.799 3.69811 88.7977C3.69778 88.7964 3.69756 88.7951 3.69745 88.7938C3.61864 87.8692 3.56611 86.943 3.53942 86.0155V86.0116L3.21227 74.537V74.5331C3.1956 73.9428 3.1736 73.3529 3.14586 72.7636V72.7597L2.60875 61.2968V61.2929C2.58501 60.7825 2.5525 60.2723 2.51025 59.7631C2.51016 59.7621 2.50995 59.7611 2.50963 59.7601C2.50931 59.7592 2.5091 59.7582 2.50901 59.7571L1.56285 48.3182V48.3143C1.48813 47.4082 1.43702 46.5005 1.40959 45.5917C1.40955 45.5904 1.40937 45.5891 1.40904 45.5878C1.40872 45.5865 1.40854 45.5852 1.4085 45.5838L1.06681 34.1137C1.06677 34.1127 1.06659 34.1117 1.06627 34.1107C1.06595 34.1098 1.06577 34.1087 1.06574 34.1077C1.05278 33.671 1.02849 33.2348 0.992541 32.7997V32.7958L0.0501578 21.3554V21.3515C-0.224545 18.0046 0.474295 11.9511 6.08531 7.88075L12.7836 3.02235L13.1175 2.787C16.5742 0.415558 20.1948 -0.00753226 22.6256 0.0487035C22.6259 0.0487095 22.626 0.0490237 22.6258 0.0492074C22.6257 0.0493912 22.6258 0.0497057 22.626 0.0497116L34.0983 0.312375C34.0986 0.312381 34.0987 0.312696 34.0985 0.312879C34.0983 0.313063 34.0984 0.313378 34.0987 0.313383C34.6994 0.327073 35.2999 0.334856 35.9001 0.338754C35.9003 0.338756 35.9004 0.339065 35.9003 0.339247C35.9001 0.339428 35.9002 0.339738 35.9005 0.339739L47.3727 0.41102C47.373 0.411021 47.3731 0.411331 47.3729 0.411512C47.3727 0.411693 47.3729 0.412003 47.3731 0.412005C48.003 0.415852 48.6326 0.415274 49.2621 0.412977L60.7347 0.370008C61.301 0.367728 61.8671 0.358511 62.433 0.342665L73.9056 0.0184458ZM32.2172 112.925C32.2175 112.933 32.2172 112.912 32.2152 112.875C32.2151 112.873 32.2144 112.87 32.2142 112.866C32.2156 112.897 32.2168 112.916 32.2172 112.925ZM22.1742 19.5321L22.2552 16.0802C22.2552 16.08 22.2552 16.0799 22.2551 16.0798C22.2548 16.0795 22.2542 16.0797 22.2542 16.0802L22.1742 19.5321Z" fill="#0AADD8"/>
</svg>
