<svg width="184" height="60" viewBox="0 0 184 60" fill="none" xmlns="http://www.w3.org/2000/svg">
<path d="M0 23.2812C0 10.4719 10.768 0 23.6188 0C30.7086 0 35.7609 2.79382 39.5714 6.42935L35.0956 10.9086C32.3927 8.33997 28.6711 6.38588 23.6188 6.38588C14.2684 6.38588 6.95752 13.9256 6.95752 23.2812C6.95752 32.6367 14.2625 40.1785 23.6188 40.1785C29.6899 40.1785 33.1469 37.7383 35.3621 35.5215C37.1785 33.7037 38.3749 31.0877 38.8172 27.5391H23.6149V21.1967H45.0146C45.2579 22.5136 45.3762 23.8506 45.368 25.1898C45.368 29.9793 44.0827 35.8771 39.8734 40.0441C35.7965 44.302 30.5685 46.5644 23.6544 46.5644C10.768 46.5189 0 36.0984 0 23.2812Z" fill="#4285F4"/>
<path d="M62.6137 16.5851C54.3215 16.5851 47.5911 22.8821 47.5911 31.5757C47.5911 40.222 54.3275 46.5644 62.6137 46.5644C70.8999 46.5644 77.6363 40.222 77.6363 31.5757C77.6363 22.8821 70.8999 16.5851 62.6137 16.5851ZM62.6137 40.6211C58.0945 40.6211 54.1498 36.8966 54.1498 31.5323C54.1498 26.1224 58.0491 22.4434 62.6137 22.4434C67.1329 22.4434 71.0776 26.1244 71.0776 31.5323C71.0757 36.8966 67.127 40.6211 62.6137 40.6211Z" fill="#EA4335"/>
<path d="M95.4052 16.5851C87.1131 16.5851 80.3826 22.8821 80.3826 31.5757C80.3826 40.222 87.119 46.5644 95.4052 46.5644C103.691 46.5644 110.428 40.222 110.428 31.5757C110.428 22.8821 103.691 16.5851 95.4052 16.5851ZM95.4052 40.6211C90.886 40.6211 86.9413 36.8966 86.9413 31.5323C86.9413 26.1224 90.8406 22.4434 95.4052 22.4434C99.9699 22.4434 103.869 26.1244 103.869 31.5323C103.869 36.8966 99.9245 40.6211 95.4052 40.6211Z" fill="#FBBC05"/>
<path d="M135.636 17.4723V19.9124H135.415C133.952 18.1342 131.115 16.5416 127.518 16.5416C120.029 16.5416 113.16 23.1053 113.16 31.5757C113.16 39.9572 120.029 46.5189 127.518 46.5189C131.107 46.5189 133.944 44.9224 135.415 43.1047H135.636V45.2781C135.636 51.008 132.578 54.0587 127.66 54.0587C123.626 54.0587 121.144 51.1759 120.126 48.7378L114.4 51.1325C116.039 55.1237 120.426 60 127.693 60C135.405 60 141.908 55.4773 141.908 44.3909V17.4723H135.636ZM128.108 40.6211C123.589 40.6211 119.778 36.8077 119.778 31.5757C119.778 26.2983 123.589 22.4395 128.108 22.4395C132.584 22.4395 136.084 26.2983 136.084 31.5757C136.13 36.8512 132.584 40.6211 128.108 40.6211Z" fill="#4285F4"/>
<path d="M146.453 1.59647H153.01V45.6417H146.453V1.59647Z" fill="#34A853"/>
<path d="M171.047 40.6211C167.679 40.6211 165.322 39.07 163.78 36.0984L183.81 27.7999L183.144 26.1145C181.904 22.7438 178.094 16.5792 170.339 16.5792C162.639 16.5792 156.203 22.6549 156.203 31.5698C156.203 39.9513 162.54 46.5584 171.047 46.5584C177.916 46.5584 181.859 42.346 183.543 39.9058L178.447 36.4916C176.72 38.9752 174.416 40.6151 171.047 40.6151V40.6211ZM170.56 22.3506C173.174 22.3506 175.391 23.6368 176.1 25.5435L162.716 31.0877C162.54 25.3222 167.192 22.3506 170.56 22.3506Z" fill="#EA4335"/>
</svg>
