<svg width="20" height="22" viewBox="0 0 20 22" fill="none" xmlns="http://www.w3.org/2000/svg">
<path fill-rule="evenodd" clip-rule="evenodd" d="M10.438 1.77791C10.2934 1.73222 10.1369 1.74294 9.99996 1.80791C9.93233 1.83959 9.87231 1.88546 9.82399 1.9424C9.77568 1.99934 9.74019 2.06603 9.71996 2.13791L9.24396 3.97191C9.07748 4.61281 8.8358 5.23177 8.52396 5.81591C8.03896 6.72291 7.30596 7.41991 6.62596 8.00591L5.18796 9.24591C5.07808 9.3409 4.99226 9.46056 4.93751 9.59509C4.88276 9.72961 4.86064 9.87519 4.87296 10.0199L5.68496 19.4129C5.7047 19.641 5.80919 19.8535 5.97781 20.0084C6.14643 20.1634 6.36697 20.2495 6.59596 20.2499H11.245C14.381 20.2499 17.024 18.0679 17.531 15.1369L18.236 11.0569C18.2588 10.9254 18.2527 10.7905 18.218 10.6617C18.1833 10.5328 18.1208 10.4131 18.035 10.3109C17.9492 10.2087 17.8421 10.1264 17.7211 10.07C17.6002 10.0135 17.4684 9.98412 17.335 9.98391H12.154C11.177 9.98391 10.434 9.10791 10.592 8.14391L11.255 4.09991C11.3467 3.54606 11.3208 2.9791 11.179 2.43591C11.1388 2.29229 11.0631 2.16107 10.959 2.0543C10.8548 1.94754 10.7255 1.86866 10.583 1.82491L10.438 1.77791ZM9.34796 0.456913C9.83166 0.224664 10.3859 0.186378 10.897 0.349913L11.042 0.396913C11.819 0.646913 12.425 1.26691 12.631 2.05891C12.824 2.80491 12.86 3.58291 12.735 4.34291L12.072 8.38691C12.0699 8.39884 12.0705 8.41107 12.0737 8.42274C12.0769 8.43442 12.0826 8.44526 12.0904 8.4545C12.0982 8.46374 12.1079 8.47116 12.1189 8.47624C12.1299 8.48132 12.1419 8.48394 12.154 8.48391H17.334C18.834 8.48391 19.97 9.83591 19.714 11.3129L19.009 15.3929C18.371 19.0809 15.071 21.7499 11.245 21.7499H6.59596C5.99155 21.7494 5.40929 21.5224 4.96406 21.1136C4.51884 20.7049 4.24299 20.1441 4.19096 19.5419L3.37796 10.1489C3.34507 9.76747 3.40315 9.38366 3.54744 9.02902C3.69173 8.67439 3.9181 8.35905 4.20796 8.10891L5.64796 6.86891C6.30296 6.30491 6.85396 5.75791 7.19996 5.10891C7.45712 4.62973 7.65587 4.12144 7.79196 3.59491L8.26796 1.76191C8.34215 1.4789 8.47723 1.21549 8.66377 0.990085C8.85031 0.764684 9.08381 0.582723 9.34796 0.456913ZM0.967956 8.48491C1.16122 8.47646 1.35027 8.54301 1.49562 8.67066C1.64097 8.79831 1.73138 8.97718 1.74796 9.16991L2.71796 20.4059C2.73439 20.5732 2.71654 20.7421 2.6655 20.9023C2.61446 21.0625 2.5313 21.2106 2.4211 21.3376C2.3109 21.4646 2.17597 21.5678 2.02456 21.6408C1.87315 21.7139 1.70843 21.7554 1.54046 21.7626C1.37249 21.7699 1.2048 21.7429 1.04763 21.6832C0.890461 21.6235 0.74711 21.5324 0.626335 21.4154C0.50556 21.2985 0.409894 21.1581 0.345182 21.0029C0.280469 20.8478 0.248067 20.681 0.249956 20.5129V9.23391C0.24978 9.04042 0.32439 8.85435 0.458194 8.71458C0.591998 8.57482 0.774642 8.49317 0.967956 8.48491Z" fill="#3EB3BC"/>
</svg>
