<svg width="278" height="51" viewBox="0 0 278 51" fill="none" xmlns="http://www.w3.org/2000/svg">
<path d="M2.9934 6.96642C2.82436 7.04054 2.66259 6.84801 2.76892 6.69705C5.62167 2.64667 11.0209 -0.215091 20.498 0.0126923C25.5173 -0.107527 29.3925 0.638193 32.3516 1.96874C34.5027 2.93591 35.7078 5.28877 35.098 7.55757C34.9916 7.95258 34.839 8.32227 34.6318 8.66033C33.8511 9.93212 32.3297 10.7474 29.9805 11.1533C27.5749 11.5691 24.6621 10.328 21.2886 8.89083C17.9188 7.45543 14.099 5.8275 10.0176 5.65576C7.55562 5.55181 5.22543 5.98387 2.9934 6.96642ZM40.1001 10.4636C40.0655 10.3597 39.9165 10.3678 39.8947 10.4754C39.8065 10.9002 39.692 11.3277 39.5502 11.7562C38.6432 14.5059 36.7029 17.2022 33.9402 19.5551C31.0474 22.0182 27.2995 24.0429 23.1008 25.4106C16.7591 27.4769 13.2775 31.2037 12.4559 36.8042C11.7988 41.2867 12.9194 46.326 13.9954 50.5942C14.0109 50.6538 14.08 50.6801 14.1327 50.6475C18.1514 48.1392 13.4156 33.091 20.498 33.4643C28.2147 33.0576 21.9012 50.9585 28.1683 51C35.0434 51.0452 34.2946 37.5771 38.8314 27.0466C40.5554 23.045 42.0031 16.245 40.1001 10.4636ZM10.2975 36.4915C10.7364 33.4969 11.8634 30.9144 13.6474 28.8165C15.6822 26.4229 18.634 24.5835 22.4219 23.3497C30.0305 20.8712 35.7996 16.1691 37.4781 11.081C38.0198 9.43859 38.0889 7.87122 37.6935 6.44758C37.6581 6.31922 37.47 6.33911 37.4627 6.47198C37.3954 7.65881 37.1101 8.78778 36.4939 9.79202C35.3824 11.6016 33.3167 12.7794 30.3549 13.2919C29.9141 13.3679 29.4661 13.4031 29.0135 13.4031C26.3398 13.4031 23.457 12.1747 20.4307 10.8857C16.6373 9.26956 12.5513 7.52955 8.22723 7.87213C3.47052 8.24905 -0.108367 12.2976 0.00250736 17.0413C0.0915706 20.8522 1.07308 24.5112 2.16456 27.0466C6.43051 36.9498 6.02427 49.4498 11.6789 50.8663C11.7443 50.8825 11.8034 50.8229 11.787 50.7578C10.6928 46.3793 9.59953 41.2469 10.2966 36.4924L10.2975 36.4915Z" fill="url(#paint0_linear_263_358)"/>
<path d="M63.672 22.256C62.84 22.256 62.072 22.112 61.368 21.824C60.6747 21.5253 60.072 21.1147 59.56 20.592C59.0587 20.0693 58.664 19.4507 58.376 18.736C58.088 18.0213 57.944 17.2427 57.944 16.4C57.944 15.5573 58.088 14.7787 58.376 14.064C58.664 13.3493 59.0587 12.7307 59.56 12.208C60.072 11.6853 60.6747 11.28 61.368 10.992C62.072 10.6933 62.84 10.544 63.672 10.544C64.7493 10.544 65.7093 10.7947 66.552 11.296C67.3947 11.7867 68.0453 12.4853 68.504 13.392L67.352 14.08C66.9787 13.3547 66.4827 12.8053 65.864 12.432C65.2453 12.048 64.52 11.856 63.688 11.856C63.048 11.856 62.4613 11.968 61.928 12.192C61.3947 12.4053 60.936 12.7147 60.552 13.12C60.1787 13.5147 59.8853 13.9947 59.672 14.56C59.4587 15.1147 59.352 15.728 59.352 16.4C59.352 17.072 59.4587 17.6907 59.672 18.256C59.8853 18.8107 60.1787 19.2907 60.552 19.696C60.936 20.0907 61.3947 20.4 61.928 20.624C62.4613 20.8373 63.048 20.944 63.688 20.944C64.52 20.944 65.2453 20.7573 65.864 20.384C66.4827 20 66.9787 19.4453 67.352 18.72L68.504 19.408C68.0453 20.3147 67.3947 21.0187 66.552 21.52C65.7093 22.0107 64.7493 22.256 63.672 22.256ZM76.2603 14V15.184H73.5083V22H72.2283V15.184H69.4763V14H76.2603ZM81.4261 22.224C80.8181 22.224 80.2635 22.1173 79.7621 21.904C79.2608 21.6907 78.8235 21.3973 78.4501 21.024C78.0875 20.64 77.8048 20.192 77.6021 19.68C77.3995 19.1573 77.2981 18.5973 77.2981 18C77.2981 17.4027 77.3995 16.848 77.6021 16.336C77.8048 15.8133 78.0875 15.3653 78.4501 14.992C78.8235 14.608 79.2608 14.3093 79.7621 14.096C80.2635 13.8827 80.8181 13.776 81.4261 13.776C82.0341 13.776 82.5888 13.8827 83.0901 14.096C83.5915 14.3093 84.0235 14.608 84.3861 14.992C84.7595 15.3653 85.0475 15.8133 85.2501 16.336C85.4528 16.848 85.5541 17.4027 85.5541 18C85.5541 18.5973 85.4528 19.1573 85.2501 19.68C85.0475 20.192 84.7595 20.64 84.3861 21.024C84.0235 21.3973 83.5915 21.6907 83.0901 21.904C82.5888 22.1173 82.0341 22.224 81.4261 22.224ZM81.4261 21.008C81.8421 21.008 82.2208 20.9333 82.5621 20.784C82.9141 20.6347 83.2128 20.4267 83.4581 20.16C83.7035 19.8827 83.8955 19.5627 84.0341 19.2C84.1728 18.8267 84.2421 18.4267 84.2421 18C84.2421 17.5627 84.1728 17.1627 84.0341 16.8C83.8955 16.4373 83.7035 16.1227 83.4581 15.856C83.2128 15.5787 82.9141 15.3653 82.5621 15.216C82.2208 15.0667 81.8421 14.992 81.4261 14.992C81.0101 14.992 80.6261 15.0667 80.2741 15.216C79.9328 15.3653 79.6395 15.5787 79.3941 15.856C79.1488 16.1227 78.9568 16.4373 78.8181 16.8C78.6795 17.1627 78.6101 17.5627 78.6101 18C78.6101 18.4267 78.6795 18.8267 78.8181 19.2C78.9568 19.5627 79.1488 19.8827 79.3941 20.16C79.6395 20.4267 79.9328 20.6347 80.2741 20.784C80.6261 20.9333 81.0101 21.008 81.4261 21.008ZM91.7685 19.632L94.3765 14H95.9765V22H94.7605V15.616L92.1365 21.152H91.3685L88.7445 15.616V22H87.5285V14H89.1605L91.7685 19.632ZM103.428 18.192L101.556 18.272C99.9342 18.3573 99.1235 18.8587 99.1235 19.776C99.1235 20.1813 99.2675 20.5013 99.5555 20.736C99.8435 20.96 100.244 21.072 100.756 21.072C101.129 21.072 101.476 21.008 101.796 20.88C102.116 20.7413 102.398 20.56 102.644 20.336C102.889 20.112 103.081 19.8507 103.22 19.552C103.358 19.2533 103.428 18.9333 103.428 18.592V18.192ZM103.428 22V20.576C103.172 21.088 102.804 21.4933 102.324 21.792C101.854 22.08 101.278 22.224 100.596 22.224C99.7528 22.224 99.0808 22.0053 98.5795 21.568C98.0888 21.1307 97.8435 20.5493 97.8435 19.824C97.8435 19.0453 98.1422 18.432 98.7395 17.984C99.3475 17.5253 100.244 17.2693 101.428 17.216L103.428 17.136V17.008C103.428 16.3573 103.241 15.8507 102.868 15.488C102.494 15.1147 101.982 14.928 101.332 14.928C100.841 14.928 100.404 15.04 100.02 15.264C99.6462 15.488 99.3475 15.8293 99.1235 16.288L98.0675 15.76C98.3448 15.1307 98.7715 14.6453 99.3475 14.304C99.9235 13.952 100.596 13.776 101.364 13.776C101.854 13.776 102.302 13.8507 102.708 14C103.113 14.1387 103.46 14.3467 103.748 14.624C104.046 14.8907 104.276 15.216 104.436 15.6C104.596 15.9733 104.676 16.3947 104.676 16.864V22H103.428ZM113.01 14V15.184H110.258V22H108.978V15.184H106.226V14H113.01ZM118.176 22.224C117.568 22.224 117.013 22.1173 116.512 21.904C116.011 21.6907 115.573 21.3973 115.2 21.024C114.837 20.64 114.555 20.192 114.352 19.68C114.149 19.1573 114.048 18.5973 114.048 18C114.048 17.4027 114.149 16.848 114.352 16.336C114.555 15.8133 114.837 15.3653 115.2 14.992C115.573 14.608 116.011 14.3093 116.512 14.096C117.013 13.8827 117.568 13.776 118.176 13.776C118.784 13.776 119.339 13.8827 119.84 14.096C120.341 14.3093 120.773 14.608 121.136 14.992C121.509 15.3653 121.797 15.8133 122 16.336C122.203 16.848 122.304 17.4027 122.304 18C122.304 18.5973 122.203 19.1573 122 19.68C121.797 20.192 121.509 20.64 121.136 21.024C120.773 21.3973 120.341 21.6907 119.84 21.904C119.339 22.1173 118.784 22.224 118.176 22.224ZM118.176 21.008C118.592 21.008 118.971 20.9333 119.312 20.784C119.664 20.6347 119.963 20.4267 120.208 20.16C120.453 19.8827 120.645 19.5627 120.784 19.2C120.923 18.8267 120.992 18.4267 120.992 18C120.992 17.5627 120.923 17.1627 120.784 16.8C120.645 16.4373 120.453 16.1227 120.208 15.856C119.963 15.5787 119.664 15.3653 119.312 15.216C118.971 15.0667 118.592 14.992 118.176 14.992C117.76 14.992 117.376 15.0667 117.024 15.216C116.683 15.3653 116.389 15.5787 116.144 15.856C115.899 16.1227 115.707 16.4373 115.568 16.8C115.429 17.1627 115.36 17.5627 115.36 18C115.36 18.4267 115.429 18.8267 115.568 19.2C115.707 19.5627 115.899 19.8827 116.144 20.16C116.389 20.4267 116.683 20.6347 117.024 20.784C117.376 20.9333 117.76 21.008 118.176 21.008ZM123.447 20.848H123.639C123.916 20.848 124.145 20.7893 124.327 20.672C124.508 20.544 124.652 20.3307 124.759 20.032C124.865 19.7333 124.94 19.3333 124.983 18.832C125.036 18.3307 125.062 17.7067 125.062 16.96V14H130.855V22H129.575V15.184H126.247V17.296C126.247 18.192 126.204 18.944 126.119 19.552C126.033 20.16 125.889 20.656 125.687 21.04C125.495 21.4133 125.239 21.6853 124.919 21.856C124.609 22.016 124.225 22.096 123.767 22.096H123.447V20.848ZM136.926 22.224C136.318 22.224 135.763 22.1173 135.262 21.904C134.761 21.6907 134.323 21.3973 133.95 21.024C133.587 20.64 133.305 20.192 133.102 19.68C132.899 19.1573 132.798 18.5973 132.798 18C132.798 17.4027 132.899 16.848 133.102 16.336C133.305 15.8133 133.587 15.3653 133.95 14.992C134.323 14.608 134.761 14.3093 135.262 14.096C135.763 13.8827 136.318 13.776 136.926 13.776C137.534 13.776 138.089 13.8827 138.59 14.096C139.091 14.3093 139.523 14.608 139.886 14.992C140.259 15.3653 140.547 15.8133 140.75 16.336C140.953 16.848 141.054 17.4027 141.054 18C141.054 18.5973 140.953 19.1573 140.75 19.68C140.547 20.192 140.259 20.64 139.886 21.024C139.523 21.3973 139.091 21.6907 138.59 21.904C138.089 22.1173 137.534 22.224 136.926 22.224ZM136.926 21.008C137.342 21.008 137.721 20.9333 138.062 20.784C138.414 20.6347 138.713 20.4267 138.958 20.16C139.203 19.8827 139.395 19.5627 139.534 19.2C139.673 18.8267 139.742 18.4267 139.742 18C139.742 17.5627 139.673 17.1627 139.534 16.8C139.395 16.4373 139.203 16.1227 138.958 15.856C138.713 15.5787 138.414 15.3653 138.062 15.216C137.721 15.0667 137.342 14.992 136.926 14.992C136.51 14.992 136.126 15.0667 135.774 15.216C135.433 15.3653 135.139 15.5787 134.894 15.856C134.649 16.1227 134.457 16.4373 134.318 16.8C134.179 17.1627 134.11 17.5627 134.11 18C134.11 18.4267 134.179 18.8267 134.318 19.2C134.457 19.5627 134.649 19.8827 134.894 20.16C135.139 20.4267 135.433 20.6347 135.774 20.784C136.126 20.9333 136.51 21.008 136.926 21.008ZM143.029 14H147.925V15.184H144.309V22H143.029V14ZM150.746 14V20.096L154.97 14H156.282V22H155.002V15.904L150.778 22H149.466V14H150.746ZM165.052 22H163.772V18.496C163.164 18.976 162.375 19.216 161.404 19.216C160.38 19.216 159.617 18.9387 159.116 18.384C158.615 17.8293 158.364 17.0773 158.364 16.128V14H159.644V15.824C159.644 16.656 159.82 17.2373 160.172 17.568C160.524 17.8987 160.988 18.064 161.564 18.064C162.001 18.064 162.417 17.9893 162.812 17.84C163.207 17.68 163.527 17.4773 163.772 17.232V14H165.052V22ZM168.378 17.216H173.578C173.567 16.8853 173.492 16.5813 173.354 16.304C173.226 16.0267 173.05 15.792 172.826 15.6C172.612 15.3973 172.356 15.2427 172.058 15.136C171.759 15.0187 171.434 14.96 171.082 14.96C170.378 14.96 169.786 15.168 169.306 15.584C168.836 16 168.527 16.544 168.378 17.216ZM171.146 22.224C170.538 22.224 169.978 22.1227 169.466 21.92C168.964 21.7067 168.527 21.4133 168.154 21.04C167.791 20.6667 167.503 20.224 167.29 19.712C167.087 19.1893 166.986 18.6187 166.986 18C166.986 17.392 167.087 16.832 167.29 16.32C167.492 15.7973 167.775 15.3493 168.138 14.976C168.511 14.6027 168.948 14.3093 169.45 14.096C169.951 13.8827 170.5 13.776 171.098 13.776C171.663 13.776 172.175 13.872 172.634 14.064C173.103 14.2453 173.503 14.5067 173.834 14.848C174.164 15.1893 174.42 15.6 174.602 16.08C174.794 16.5493 174.89 17.072 174.89 17.648C174.89 17.8827 174.874 18.1227 174.842 18.368H168.314C168.356 18.7627 168.452 19.12 168.602 19.44C168.762 19.76 168.964 20.0373 169.21 20.272C169.466 20.5067 169.759 20.688 170.09 20.816C170.42 20.944 170.783 21.008 171.178 21.008C171.69 21.008 172.148 20.9067 172.554 20.704C172.959 20.4907 173.29 20.1813 173.546 19.776L174.522 20.56C174.138 21.104 173.652 21.52 173.066 21.808C172.49 22.0853 171.85 22.224 171.146 22.224ZM180.489 22.224C179.881 22.224 179.321 22.1173 178.809 21.904C178.307 21.6907 177.875 21.3973 177.513 21.024C177.15 20.6507 176.867 20.208 176.665 19.696C176.462 19.1733 176.361 18.608 176.361 18C176.361 17.392 176.462 16.832 176.665 16.32C176.867 15.7973 177.15 15.3493 177.513 14.976C177.875 14.6027 178.307 14.3093 178.809 14.096C179.321 13.8827 179.881 13.776 180.489 13.776C181.278 13.776 181.966 13.9573 182.553 14.32C183.15 14.672 183.614 15.184 183.945 15.856L182.873 16.496C182.617 15.9947 182.281 15.6213 181.865 15.376C181.459 15.12 180.99 14.992 180.457 14.992C180.041 14.992 179.662 15.0667 179.321 15.216C178.979 15.3653 178.686 15.5787 178.441 15.856C178.195 16.1227 178.003 16.4373 177.865 16.8C177.737 17.1627 177.673 17.5627 177.673 18C177.673 18.4267 177.737 18.8267 177.865 19.2C178.003 19.5627 178.195 19.8827 178.441 20.16C178.686 20.4267 178.979 20.6347 179.321 20.784C179.662 20.9333 180.041 21.008 180.457 21.008C180.99 21.008 181.459 20.8853 181.865 20.64C182.281 20.384 182.617 20.0053 182.873 19.504L183.945 20.144C183.614 20.816 183.15 21.3333 182.553 21.696C181.966 22.048 181.278 22.224 180.489 22.224ZM188.21 18.48H187.138V22H185.858V14H187.138V17.264H188.21L190.978 14H192.626L189.266 17.84L192.674 22H191.058L188.21 18.48ZM199.24 18.192L197.368 18.272C195.747 18.3573 194.936 18.8587 194.936 19.776C194.936 20.1813 195.08 20.5013 195.368 20.736C195.656 20.96 196.056 21.072 196.568 21.072C196.941 21.072 197.288 21.008 197.608 20.88C197.928 20.7413 198.211 20.56 198.456 20.336C198.701 20.112 198.893 19.8507 199.032 19.552C199.171 19.2533 199.24 18.9333 199.24 18.592V18.192ZM199.24 22V20.576C198.984 21.088 198.616 21.4933 198.136 21.792C197.667 22.08 197.091 22.224 196.408 22.224C195.565 22.224 194.893 22.0053 194.392 21.568C193.901 21.1307 193.656 20.5493 193.656 19.824C193.656 19.0453 193.955 18.432 194.552 17.984C195.16 17.5253 196.056 17.2693 197.24 17.216L199.24 17.136V17.008C199.24 16.3573 199.053 15.8507 198.68 15.488C198.307 15.1147 197.795 14.928 197.144 14.928C196.653 14.928 196.216 15.04 195.832 15.264C195.459 15.488 195.16 15.8293 194.936 16.288L193.88 15.76C194.157 15.1307 194.584 14.6453 195.16 14.304C195.736 13.952 196.408 13.776 197.176 13.776C197.667 13.776 198.115 13.8507 198.52 14C198.925 14.1387 199.272 14.3467 199.56 14.624C199.859 14.8907 200.088 15.216 200.248 15.6C200.408 15.9733 200.488 16.3947 200.488 16.864V22H199.24ZM207.303 15.168H205.239C204.727 15.168 204.327 15.3067 204.039 15.584C203.751 15.8507 203.607 16.1973 203.607 16.624C203.607 17.0507 203.751 17.3973 204.039 17.664C204.327 17.9307 204.727 18.064 205.239 18.064H207.303V15.168ZM205.111 14H208.583V22H207.303V19.232H205.431L203.607 22H202.119L204.055 19.072C203.511 18.8907 203.084 18.5867 202.775 18.16C202.476 17.7333 202.327 17.2213 202.327 16.624C202.327 16.24 202.391 15.888 202.519 15.568C202.657 15.2373 202.849 14.96 203.095 14.736C203.34 14.5013 203.633 14.32 203.975 14.192C204.316 14.064 204.695 14 205.111 14ZM219.489 16.128L223.793 22H222.129L218.353 16.768H216.769V22H215.425V10.8H216.769V15.52H218.417L222.129 10.8H223.761L219.489 16.128ZM224.587 20.848H224.779C225.056 20.848 225.286 20.7893 225.467 20.672C225.648 20.544 225.792 20.3307 225.899 20.032C226.006 19.7333 226.08 19.3333 226.123 18.832C226.176 18.3307 226.203 17.7067 226.203 16.96V14H231.995V22H230.715V15.184H227.387V17.296C227.387 18.192 227.344 18.944 227.259 19.552C227.174 20.16 227.03 20.656 226.827 21.04C226.635 21.4133 226.379 21.6853 226.059 21.856C225.75 22.016 225.366 22.096 224.907 22.096H224.587V20.848ZM235.715 14V20.096L239.939 14H241.251V22H239.971V15.904L235.747 22H234.435V14H235.715ZM250.405 14V22H249.125V18.352H244.965V22H243.685V14H244.965V17.168H249.125V14H250.405ZM254.121 14V20.096L258.345 14H259.657V22H258.377V15.904L254.153 22H252.841V14H254.121ZM264.491 18.48H263.419V22H262.139V14H263.419V17.264H264.491L267.259 14H268.907L265.547 17.84L268.955 22H267.339L264.491 18.48ZM275.521 18.192L273.649 18.272C272.028 18.3573 271.217 18.8587 271.217 19.776C271.217 20.1813 271.361 20.5013 271.649 20.736C271.937 20.96 272.337 21.072 272.849 21.072C273.223 21.072 273.569 21.008 273.889 20.88C274.209 20.7413 274.492 20.56 274.737 20.336C274.983 20.112 275.175 19.8507 275.313 19.552C275.452 19.2533 275.521 18.9333 275.521 18.592V18.192ZM275.521 22V20.576C275.265 21.088 274.897 21.4933 274.417 21.792C273.948 22.08 273.372 22.224 272.689 22.224C271.847 22.224 271.175 22.0053 270.673 21.568C270.183 21.1307 269.937 20.5493 269.937 19.824C269.937 19.0453 270.236 18.432 270.833 17.984C271.441 17.5253 272.337 17.2693 273.521 17.216L275.521 17.136V17.008C275.521 16.3573 275.335 15.8507 274.961 15.488C274.588 15.1147 274.076 14.928 273.425 14.928C272.935 14.928 272.497 15.04 272.113 15.264C271.74 15.488 271.441 15.8293 271.217 16.288L270.161 15.76C270.439 15.1307 270.865 14.6453 271.441 14.304C272.017 13.952 272.689 13.776 273.457 13.776C273.948 13.776 274.396 13.8507 274.801 14C275.207 14.1387 275.553 14.3467 275.841 14.624C276.14 14.8907 276.369 15.216 276.529 15.6C276.689 15.9733 276.769 16.3947 276.769 16.864V22H275.521ZM58.456 31.8H65.304V33.048H59.8V36.536H64.792V37.784H59.8V41.752H65.304V43H58.456V31.8ZM66.6653 41.848H66.8573C67.1346 41.848 67.3639 41.7893 67.5453 41.672C67.7266 41.544 67.8706 41.3307 67.9773 41.032C68.0839 40.7333 68.1586 40.3333 68.2013 39.832C68.2546 39.3307 68.2812 38.7067 68.2812 37.96V35H74.0733V43H72.7933V36.184H69.4653V38.296C69.4653 39.192 69.4226 39.944 69.3373 40.552C69.2519 41.16 69.1079 41.656 68.9053 42.04C68.7133 42.4133 68.4573 42.6853 68.1373 42.856C67.8279 43.016 67.4439 43.096 66.9853 43.096H66.6653V41.848ZM77.4089 38.216H82.6089C82.5982 37.8853 82.5235 37.5813 82.3849 37.304C82.2569 37.0267 82.0809 36.792 81.8569 36.6C81.6435 36.3973 81.3875 36.2427 81.0889 36.136C80.7902 36.0187 80.4649 35.96 80.1129 35.96C79.4089 35.96 78.8169 36.168 78.3369 36.584C77.8675 37 77.5582 37.544 77.4089 38.216ZM80.1769 43.224C79.5689 43.224 79.0089 43.1227 78.4969 42.92C77.9955 42.7067 77.5582 42.4133 77.1849 42.04C76.8222 41.6667 76.5342 41.224 76.3209 40.712C76.1182 40.1893 76.0169 39.6187 76.0169 39C76.0169 38.392 76.1182 37.832 76.3209 37.32C76.5235 36.7973 76.8062 36.3493 77.1689 35.976C77.5422 35.6027 77.9795 35.3093 78.4809 35.096C78.9822 34.8827 79.5315 34.776 80.1289 34.776C80.6942 34.776 81.2062 34.872 81.6649 35.064C82.1342 35.2453 82.5342 35.5067 82.8649 35.848C83.1955 36.1893 83.4515 36.6 83.6329 37.08C83.8249 37.5493 83.9209 38.072 83.9209 38.648C83.9209 38.8827 83.9049 39.1227 83.8729 39.368H77.3449C77.3875 39.7627 77.4835 40.12 77.6329 40.44C77.7929 40.76 77.9955 41.0373 78.2409 41.272C78.4969 41.5067 78.7902 41.688 79.1209 41.816C79.4515 41.944 79.8142 42.008 80.2089 42.008C80.7209 42.008 81.1795 41.9067 81.5849 41.704C81.9902 41.4907 82.3209 41.1813 82.5769 40.776L83.5529 41.56C83.1689 42.104 82.6835 42.52 82.0969 42.808C81.5209 43.0853 80.8809 43.224 80.1769 43.224ZM92.6079 35V43H91.3279V39.352H87.1679V43H85.8879V35H87.1679V38.168H91.3279V35H92.6079ZM102.788 35H104.068V43H102.788V35ZM96.4521 41.848H98.5321C99.0441 41.848 99.4441 41.704 99.7321 41.416C100.02 41.128 100.164 40.7547 100.164 40.296C100.164 39.848 100.02 39.4853 99.7321 39.208C99.4441 38.9307 99.0441 38.792 98.5321 38.792H96.4521V41.848ZM98.6601 43H95.2361V35H96.4521V37.64H98.6281C99.0441 37.64 99.4228 37.704 99.7641 37.832C100.105 37.96 100.399 38.1413 100.644 38.376C100.889 38.6107 101.076 38.8933 101.204 39.224C101.343 39.5547 101.412 39.9173 101.412 40.312C101.412 40.7067 101.343 41.0693 101.204 41.4C101.076 41.72 100.889 42.0027 100.644 42.248C100.409 42.4827 100.121 42.6693 99.7801 42.808C99.4495 42.936 99.0761 43 98.6601 43ZM116.905 39.928L120.617 31.8H122.441V43H121.161V33.576L117.337 41.768H116.441L112.617 33.576V43H111.337V31.8H113.193L116.905 39.928ZM129.036 43.224C128.428 43.224 127.873 43.1173 127.372 42.904C126.87 42.6907 126.433 42.3973 126.06 42.024C125.697 41.64 125.414 41.192 125.212 40.68C125.009 40.1573 124.908 39.5973 124.908 39C124.908 38.4027 125.009 37.848 125.212 37.336C125.414 36.8133 125.697 36.3653 126.06 35.992C126.433 35.608 126.87 35.3093 127.372 35.096C127.873 34.8827 128.428 34.776 129.036 34.776C129.644 34.776 130.198 34.8827 130.7 35.096C131.201 35.3093 131.633 35.608 131.996 35.992C132.369 36.3653 132.657 36.8133 132.86 37.336C133.062 37.848 133.164 38.4027 133.164 39C133.164 39.5973 133.062 40.1573 132.86 40.68C132.657 41.192 132.369 41.64 131.996 42.024C131.633 42.3973 131.201 42.6907 130.7 42.904C130.198 43.1173 129.644 43.224 129.036 43.224ZM129.036 42.008C129.452 42.008 129.83 41.9333 130.172 41.784C130.524 41.6347 130.822 41.4267 131.068 41.16C131.313 40.8827 131.505 40.5627 131.644 40.2C131.782 39.8267 131.852 39.4267 131.852 39C131.852 38.5627 131.782 38.1627 131.644 37.8C131.505 37.4373 131.313 37.1227 131.068 36.856C130.822 36.5787 130.524 36.3653 130.172 36.216C129.83 36.0667 129.452 35.992 129.036 35.992C128.62 35.992 128.236 36.0667 127.884 36.216C127.542 36.3653 127.249 36.5787 127.004 36.856C126.758 37.1227 126.566 37.4373 126.428 37.8C126.289 38.1627 126.22 38.5627 126.22 39C126.22 39.4267 126.289 39.8267 126.428 40.2C126.566 40.5627 126.758 40.8827 127.004 41.16C127.249 41.4267 127.542 41.6347 127.884 41.784C128.236 41.9333 128.62 42.008 129.036 42.008ZM137.538 39.48H136.466V43H135.186V35H136.466V38.264H137.538L140.306 35H141.954L138.594 38.84L142.002 43H140.386L137.538 39.48ZM147.624 42.008C148.04 42.008 148.419 41.9333 148.76 41.784C149.112 41.6347 149.411 41.4267 149.656 41.16C149.901 40.8827 150.093 40.5627 150.232 40.2C150.371 39.8267 150.44 39.4267 150.44 39C150.44 38.5627 150.371 38.1627 150.232 37.8C150.093 37.4373 149.901 37.1227 149.656 36.856C149.411 36.5787 149.112 36.3653 148.76 36.216C148.419 36.0667 148.04 35.992 147.624 35.992C147.208 35.992 146.824 36.0667 146.472 36.216C146.131 36.3653 145.837 36.5787 145.592 36.856C145.347 37.1227 145.155 37.4373 145.016 37.8C144.877 38.1627 144.808 38.5627 144.808 39C144.808 39.4267 144.877 39.8267 145.016 40.2C145.155 40.5627 145.347 40.8827 145.592 41.16C145.837 41.4267 146.131 41.6347 146.472 41.784C146.824 41.9333 147.208 42.008 147.624 42.008ZM147.8 43.224C147.117 43.224 146.525 43.08 146.024 42.792C145.523 42.4933 145.117 42.088 144.808 41.576V46.2H143.528V35H144.808V36.424C145.117 35.912 145.523 35.512 146.024 35.224C146.525 34.9253 147.117 34.776 147.8 34.776C148.376 34.776 148.904 34.8827 149.384 35.096C149.875 35.3093 150.291 35.608 150.632 35.992C150.984 36.3653 151.256 36.808 151.448 37.32C151.651 37.832 151.752 38.392 151.752 39C151.752 39.608 151.651 40.168 151.448 40.68C151.256 41.192 150.984 41.64 150.632 42.024C150.291 42.3973 149.875 42.6907 149.384 42.904C148.904 43.1173 148.376 43.224 147.8 43.224ZM154.612 38.216H159.812C159.801 37.8853 159.727 37.5813 159.588 37.304C159.46 37.0267 159.284 36.792 159.06 36.6C158.847 36.3973 158.591 36.2427 158.292 36.136C157.993 36.0187 157.668 35.96 157.316 35.96C156.612 35.96 156.02 36.168 155.54 36.584C155.071 37 154.761 37.544 154.612 38.216ZM157.38 43.224C156.772 43.224 156.212 43.1227 155.7 42.92C155.199 42.7067 154.761 42.4133 154.388 42.04C154.025 41.6667 153.737 41.224 153.524 40.712C153.321 40.1893 153.22 39.6187 153.22 39C153.22 38.392 153.321 37.832 153.524 37.32C153.727 36.7973 154.009 36.3493 154.372 35.976C154.745 35.6027 155.183 35.3093 155.684 35.096C156.185 34.8827 156.735 34.776 157.332 34.776C157.897 34.776 158.409 34.872 158.868 35.064C159.337 35.2453 159.737 35.5067 160.068 35.848C160.399 36.1893 160.655 36.6 160.836 37.08C161.028 37.5493 161.124 38.072 161.124 38.648C161.124 38.8827 161.108 39.1227 161.076 39.368H154.548C154.591 39.7627 154.687 40.12 154.836 40.44C154.996 40.76 155.199 41.0373 155.444 41.272C155.7 41.5067 155.993 41.688 156.324 41.816C156.655 41.944 157.017 42.008 157.412 42.008C157.924 42.008 158.383 41.9067 158.788 41.704C159.193 41.4907 159.524 41.1813 159.78 40.776L160.756 41.56C160.372 42.104 159.887 42.52 159.3 42.808C158.724 43.0853 158.084 43.224 157.38 43.224ZM169.811 35V43H168.531V39.352H164.371V43H163.091V35H164.371V38.168H168.531V35H169.811ZM174.647 39.48H173.575V43H172.295V35H173.575V38.264H174.647L177.415 35H179.063L175.703 38.84L179.111 43H177.495L174.647 39.48ZM184.286 43.224C183.678 43.224 183.123 43.1173 182.622 42.904C182.12 42.6907 181.683 42.3973 181.31 42.024C180.947 41.64 180.664 41.192 180.462 40.68C180.259 40.1573 180.158 39.5973 180.158 39C180.158 38.4027 180.259 37.848 180.462 37.336C180.664 36.8133 180.947 36.3653 181.31 35.992C181.683 35.608 182.12 35.3093 182.622 35.096C183.123 34.8827 183.678 34.776 184.286 34.776C184.894 34.776 185.448 34.8827 185.95 35.096C186.451 35.3093 186.883 35.608 187.246 35.992C187.619 36.3653 187.907 36.8133 188.11 37.336C188.312 37.848 188.414 38.4027 188.414 39C188.414 39.5973 188.312 40.1573 188.11 40.68C187.907 41.192 187.619 41.64 187.246 42.024C186.883 42.3973 186.451 42.6907 185.95 42.904C185.448 43.1173 184.894 43.224 184.286 43.224ZM184.286 42.008C184.702 42.008 185.08 41.9333 185.422 41.784C185.774 41.6347 186.072 41.4267 186.318 41.16C186.563 40.8827 186.755 40.5627 186.894 40.2C187.032 39.8267 187.102 39.4267 187.102 39C187.102 38.5627 187.032 38.1627 186.894 37.8C186.755 37.4373 186.563 37.1227 186.318 36.856C186.072 36.5787 185.774 36.3653 185.422 36.216C185.08 36.0667 184.702 35.992 184.286 35.992C183.87 35.992 183.486 36.0667 183.134 36.216C182.792 36.3653 182.499 36.5787 182.254 36.856C182.008 37.1227 181.816 37.4373 181.678 37.8C181.539 38.1627 181.47 38.5627 181.47 39C181.47 39.4267 181.539 39.8267 181.678 40.2C181.816 40.5627 182.008 40.8827 182.254 41.16C182.499 41.4267 182.792 41.6347 183.134 41.784C183.486 41.9333 183.87 42.008 184.286 42.008Z" fill="black"/>
<defs>
<linearGradient id="paint0_linear_263_358" x1="-0.000219064" y1="25.5" x2="40.9998" y2="25.5" gradientUnits="userSpaceOnUse">
<stop stop-color="#5EC2AE"/>
<stop offset="1" stop-color="#21B0E4"/>
</linearGradient>
</defs>
</svg>
