<svg width="140" height="140" viewBox="0 0 140 140" fill="none" xmlns="http://www.w3.org/2000/svg">
<circle cx="70" cy="70" r="70" fill="white"/>
<g clip-path="url(#clip0_803_1200)">
<path d="M98.8131 61.3687C97.1471 73.651 92.0349 89.7646 86.9737 98.4172C85.779 100.675 84.0136 101.339 82.195 101.339C79.2626 101.339 77.4163 99.2139 76.6227 95.7614C75.027 89.5202 75.0713 77.0379 67.9944 77.0379C60.9175 77.0379 60.9619 89.5202 59.3661 95.7614C58.5725 99.2139 56.7262 101.339 53.7938 101.339C51.9752 101.339 50.2098 100.675 49.015 98.4172C42.9089 87.9784 36.7999 66.6803 36.657 54.3514C36.5568 45.7067 43.025 38.6615 51.6671 38.6615C59.587 38.6615 62.9502 44.7699 67.9945 44.7699C71.3602 44.7699 73.9775 42.0503 77.6995 40.2404M79.4256 68.2738V57.6505M74.114 62.9622H84.7373M92.0407 53.2684V38.6615M84.7373 45.965H99.3442" stroke="#3EB3BC" stroke-width="5" stroke-miterlimit="10" stroke-linecap="round" stroke-linejoin="round"/>
</g>
<defs>
<clipPath id="clip0_803_1200">
<rect width="68" height="68" fill="white" transform="translate(34 36)"/>
</clipPath>
</defs>
</svg>
