<svg width="202" height="234" viewBox="0 0 202 234" fill="none" xmlns="http://www.w3.org/2000/svg">
<g clip-path="url(#clip0_892_1350)">
<path d="M128.819 -54.358C138.132 -56.943 147.777 -51.4891 150.362 -42.1763C158.822 -11.7006 164.958 15.8605 175.318 43.3285C183.617 65.3293 193.241 89.4895 199.277 114.182C204.776 136.675 203.61 162.506 188.529 184.169C174.364 204.518 154.041 230.466 118.733 232.96C102.767 234.088 89.2387 228.527 78.6895 223.249C66.7457 217.274 60.1445 212.796 51.4316 209.741C35.7577 204.245 19.018 205.004 -2.44434 205.004C-15.0375 205.004 -23.2735 204.121 -32.5635 205.125C-35.2027 205.411 -38.7613 206.706 -43.5684 209.562C-48.4548 212.465 -52.922 215.885 -58.3887 219.82C-61.5792 222.116 -65.3445 225.282 -68.1172 228.548C-69.4824 230.156 -70.3168 231.452 -70.7598 232.358C-70.8915 232.627 -70.9657 232.817 -71.0059 232.93C-71.232 242.398 -78.9774 250.004 -88.5 250.004C-98.165 250.004 -106 242.169 -106 232.504C-106 220.925 -99.6038 211.558 -94.7979 205.897C-89.5608 199.728 -83.3818 194.685 -78.834 191.412L-75.1973 188.767C-71.2413 185.887 -66.4087 182.421 -61.4453 179.472C-54.7482 175.493 -46.1495 171.39 -36.3252 170.328C-24.6456 169.065 -10.9153 170.004 -2.44434 170.004C16.0951 170.004 40.3011 168.749 63.0127 176.712C74.3912 180.702 86.7613 188.152 94.3496 191.949C103.333 196.443 109.898 198.498 116.267 198.048C133.647 196.82 145.554 184.642 159.804 164.172C167.516 153.094 169.166 138.397 165.278 122.494V122.493L164.763 120.421C159.335 99.0256 150.971 77.9523 142.57 55.6801C131.469 26.2496 124.486 -4.54092 116.638 -32.815C114.053 -42.1278 119.507 -51.7728 128.819 -54.358Z" fill="white" fill-opacity="0.43"/>
<path d="M77.3117 -63.2085C86.5421 -66.074 96.3475 -60.9144 99.213 -51.6841C107.249 -25.7969 113.907 -1.37976 123.808 21.7222C126.171 27.2356 128.23 33.027 130.018 37.8374C131.901 42.9063 133.613 47.2655 135.597 51.2339C149.915 79.8706 146.816 112.17 123.93 137.025C112.728 149.19 96.4615 163.811 74.9689 168.012C61.7595 170.594 49.3833 167.655 40.1476 164.756C27.2437 160.706 10.9272 155.42 -2.93834 146.391C-13.7153 139.373 -22.8299 131.208 -31.0038 123.319C-39.6673 114.957 -46.2413 107.985 -54.2792 100.669C-55.9612 99.1385 -57.7327 97.7174 -60.1844 95.7036C-62.4401 93.8508 -65.2167 91.5356 -67.8739 88.8784C-74.7081 82.0443 -74.7081 70.9645 -67.8739 64.1304C-61.0397 57.2962 -49.96 57.2962 -43.1258 64.1304C-41.7802 65.476 -40.1611 66.8576 -37.9696 68.6577C-35.9741 70.2967 -33.2466 72.4857 -30.7206 74.7847C-22.3778 82.3775 -13.7946 91.2856 -6.69713 98.1362C0.890137 105.46 8.141 111.84 16.1603 117.062C25.4506 123.111 37.3319 127.189 50.63 131.363C58.2773 133.763 63.7981 134.534 68.254 133.663C78.3322 131.692 88.173 124.187 98.1818 113.317C110.641 99.7861 112.502 83.306 104.292 66.8862C101.406 61.1144 99.1486 55.2477 97.2091 50.0278C95.1737 44.5499 93.557 39.9896 91.6369 35.5093C80.7933 10.2077 73.3317 -17.0047 65.7872 -41.3071C62.9218 -50.5375 68.0813 -60.343 77.3117 -63.2085Z" fill="white" fill-opacity="0.43"/>
</g>
<defs>
<clipPath id="clip0_892_1350">
<rect width="202" height="234" fill="white"/>
</clipPath>
</defs>
</svg>
