<svg width="80" height="80" viewBox="0 0 80 80" fill="none" xmlns="http://www.w3.org/2000/svg">
<circle cx="40" cy="40" r="40" fill="#FB4B68"/>
<path d="M33.208 30.0494C33.0865 29.9773 32.9482 29.9388 32.807 29.9375C32.6658 29.9363 32.5268 29.9725 32.4041 30.0423C32.2814 30.1122 32.1794 30.2133 32.1084 30.3354C32.0374 30.4575 32 30.5962 32 30.7374V49.2627C32 49.4039 32.0374 49.5426 32.1084 49.6646C32.1794 49.7867 32.2814 49.8878 32.4041 49.9577C32.5268 50.0276 32.6658 50.0638 32.807 50.0625C32.9482 50.0613 33.0865 50.0227 33.208 49.9507L48.8387 40.688C48.958 40.6172 49.0569 40.5165 49.1256 40.3959C49.1943 40.2753 49.2304 40.1388 49.2304 40C49.2304 39.8612 49.1943 39.7248 49.1256 39.6042C49.0569 39.4835 48.958 39.3829 48.8387 39.312L33.208 30.0494Z" fill="white" stroke="white" stroke-width="1.5" stroke-linecap="round" stroke-linejoin="round"/>
</svg>
