<svg width="80" height="80" viewBox="0 0 80 80" fill="none" xmlns="http://www.w3.org/2000/svg">
<circle cx="40" cy="40" r="40" fill="white"/>
<g clip-path="url(#clip0_790_1191)">
<path d="M36.6728 40.8349C32.9145 42.7767 29.8923 48.123 27.7933 56.6347H27.3821C26.9196 53.8866 26.6888 51.1044 26.6919 48.3176C26.6919 45.3318 26.9484 42.3635 27.4554 39.4965L27.7868 37.6106L26.3246 36.3744C25.3975 35.5952 24.6522 34.6226 24.1409 33.5248C23.6296 32.427 23.3646 31.2306 23.3647 30.0195V26.6924C23.3647 25.7272 26.2792 23.3652 31.6824 23.3652C33.3846 23.3652 35.014 23.6382 36.4258 24.1028L34.8224 25.0286C33.2384 25.9433 30.7596 26.6919 29.3169 26.6919H26.6919V30.019H29.3169C31.624 30.019 34.6697 28.9586 36.4857 27.9106L41.6773 24.9118C43.3621 23.9292 45.781 23.3652 48.3171 23.3652C53.7198 23.3652 56.6342 25.7272 56.6342 26.6924V30.019C56.6342 30.5835 56.5709 31.1394 56.4586 31.6824H59.8282C59.9085 31.1374 59.9619 30.585 59.9619 30.019V26.6919C59.9619 23.0174 54.7488 20.0381 48.3176 20.0381C45.0573 20.0381 42.1135 20.8051 40 22.0393C37.8865 20.8051 34.9446 20.0381 31.6824 20.0381C25.2496 20.0381 20.0381 23.0174 20.0381 26.6919V30.019C20.0381 33.5897 21.6495 36.7801 24.1787 38.9181C23.6344 42.0216 23.362 45.1667 23.3647 48.3176C23.3647 52.4502 23.8343 56.3717 24.6513 59.9619H30.4477C31.9359 52.8515 34.1222 47.4907 36.6728 44.953V40.8349Z" fill="#3EB3BC"/>
<path d="M40 36.6728V44.9904C40 47.1847 40.4422 49.2807 41.2316 51.1911C42.0445 53.1565 43.2355 54.9432 44.737 56.4496C46.2374 57.9533 48.0193 59.1467 49.981 59.9619C51.9426 59.1467 53.7245 57.9533 55.2249 56.4496C56.7264 54.9432 57.9174 53.1565 58.7303 51.1911C59.5438 49.2251 59.9623 47.1181 59.9619 44.9904V36.6728C53.3081 34.3727 46.1697 34.5384 40 36.6728ZM56.6348 44.9904C56.6348 46.6897 56.3054 48.3485 55.6551 49.921C55.0101 51.4832 54.0635 52.903 52.8694 54.0991C52.0147 54.9579 51.0421 55.6909 49.981 56.2759C48.9197 55.691 47.9471 54.958 47.0925 54.0991C45.8971 52.9017 44.9497 51.4802 44.3048 49.916C43.6577 48.3546 43.3255 46.6807 43.3272 44.9904V39.1501C45.5061 38.6065 47.7437 38.3332 49.9894 38.3361C52.2506 38.3361 54.4779 38.6091 56.6348 39.1501V44.9904Z" fill="#3EB3BC"/>
<path d="M54.1395 44.5748H51.2286V41.6633H48.7333V44.5748H45.8224V47.07H48.7333V49.981H51.2286V47.07H54.1395V44.5748Z" fill="#3EB3BC"/>
</g>
<defs>
<clipPath id="clip0_790_1191">
<rect width="40" height="40" fill="white" transform="translate(20 20)"/>
</clipPath>
</defs>
</svg>
