<svg width="98" height="80" viewBox="0 0 98 80" fill="none" xmlns="http://www.w3.org/2000/svg">
<circle cx="40" cy="40" r="40" fill="white"/>
<path d="M95.7812 39.2812H87.35C86.3516 39.2812 85.4641 40.0578 85.1313 41.0562L82.4688 53.4813L76.9219 28.7422C76.7 27.7437 75.9234 27.0781 74.925 26.9672C73.9266 26.8562 73.0391 27.5219 72.7062 28.4094L67.6031 43.1641L62.6109 19.8672C62.2781 18.9797 61.3906 18.2031 60.2812 18.2031C59.1719 18.2031 58.3953 18.8688 58.0625 19.8672L50.2969 50.375L45.7484 33.1797C45.5266 32.4031 44.8609 31.7375 43.9734 31.5156C43.0859 31.4047 42.3094 31.7375 41.7547 32.4031L36.7625 39.2812H29.2188C27.9984 39.2812 27 40.2797 27 41.5C27 42.7203 27.9984 43.7188 29.2188 43.7188H37.8719C38.5375 43.7188 39.2031 43.3859 39.6469 42.8313L42.6422 38.8375L48.0781 59.9156C48.3 60.9141 49.1875 61.5797 50.1859 61.5797C51.1844 61.5797 52.0719 60.9141 52.2937 59.9156L59.9484 30.1844L64.7188 51.9281C64.9406 52.9266 65.7172 53.5922 66.7156 53.7031C67.7141 53.8141 68.6016 53.1484 68.9344 52.2609L74.1484 37.3953L80.25 64.1313C80.4719 65.1297 81.3594 65.9062 82.4688 65.9062C83.4672 65.9062 84.3547 65.1297 84.5766 64.1313L89.125 43.7188H95.7812C97.0016 43.7188 98 42.7203 98 41.5C98 40.2797 97.0016 39.2812 95.7812 39.2812Z" fill="#3EB3BC"/>
</svg>
