<svg width="163" height="74" viewBox="0 0 163 74" fill="none" xmlns="http://www.w3.org/2000/svg">
<path d="M135.773 18.8534L37.3645 13.4523C22.7509 12.6502 10.2541 23.8466 9.45203 38.4602C8.64996 53.0737 19.8464 65.5706 34.4599 66.3726L132.869 71.7738C147.482 72.5759 159.979 61.3794 160.781 46.7659C161.583 32.1523 150.387 19.6555 135.773 18.8534Z" fill="white" fill-opacity="0.36"/>
<path d="M124.496 2.0737L27.1989 6.82473C12.5808 7.53853 1.30912 19.9675 2.02293 34.5857C2.73673 49.2038 15.1657 60.4755 29.7838 59.7617L127.081 55.0106C141.699 54.2968 152.971 41.8678 152.257 27.2497C151.543 12.6316 139.114 1.35989 124.496 2.0737Z" fill="#3EB3BC"/>
<path d="M87.5802 28.9992V38.1432L93.9162 28.9992H95.8842V40.9992H93.9642V31.8552L87.6282 40.9992H85.6602V28.9992H87.5802ZM103.543 41.3352C101.031 41.3352 99.3112 40.3272 98.3832 38.3112L99.9432 37.4712C100.311 38.2392 100.807 38.7992 101.431 39.1512C102.055 39.4872 102.775 39.6552 103.591 39.6552C104.455 39.6552 105.159 39.4792 105.703 39.1272C106.263 38.7592 106.543 38.2632 106.543 37.6392C106.543 37.1432 106.343 36.7032 105.943 36.3192C105.543 35.9352 104.935 35.7432 104.119 35.7432H101.671V33.9672H104.119C104.791 33.9672 105.327 33.8152 105.727 33.5112C106.143 33.1912 106.351 32.7752 106.351 32.2632C106.351 31.6872 106.095 31.2232 105.583 30.8712C105.087 30.5192 104.423 30.3432 103.591 30.3432C102.071 30.3432 100.975 30.9992 100.303 32.3112L98.7432 31.4712C99.1592 30.5592 99.7832 29.8632 100.615 29.3832C101.463 28.9032 102.463 28.6632 103.615 28.6632C104.287 28.6632 104.903 28.7512 105.463 28.9272C106.039 29.0872 106.527 29.3192 106.927 29.6232C107.343 29.9272 107.663 30.3032 107.887 30.7512C108.111 31.1832 108.223 31.6632 108.223 32.1912C108.223 32.8152 108.055 33.3592 107.719 33.8232C107.399 34.2712 106.895 34.6232 106.207 34.8792C106.911 35.0872 107.455 35.4392 107.839 35.9352C108.223 36.4152 108.415 37.0072 108.415 37.7112C108.415 38.2392 108.295 38.7272 108.055 39.1752C107.831 39.6072 107.511 39.9912 107.095 40.3272C106.679 40.6472 106.167 40.8952 105.559 41.0712C104.967 41.2472 104.295 41.3352 103.543 41.3352ZM122.026 41.3832C119.386 41.3832 117.49 40.2792 116.338 38.0712L118.066 37.1352C118.962 38.6872 120.274 39.4632 122.002 39.4632C122.61 39.4632 123.162 39.3752 123.658 39.1992C124.154 39.0072 124.578 38.7512 124.93 38.4312C125.282 38.0952 125.554 37.6952 125.746 37.2312C125.938 36.7512 126.034 36.2232 126.034 35.6472C126.034 35.1352 125.954 34.6552 125.794 34.2072C125.65 33.7592 125.41 33.3672 125.074 33.0312C124.754 32.6792 124.346 32.4072 123.85 32.2152C123.354 32.0072 122.762 31.9032 122.074 31.9032C120.618 31.9032 119.474 32.4232 118.642 33.4632L117.058 32.8872L117.514 24.1992H127.114V26.0712H119.146L118.906 31.1112C119.882 30.4232 121.042 30.0792 122.386 30.0792C123.282 30.0792 124.074 30.2152 124.762 30.4872C125.466 30.7592 126.058 31.1432 126.538 31.6392C127.034 32.1192 127.41 32.7032 127.666 33.3912C127.922 34.0792 128.05 34.8472 128.05 35.6952C128.05 36.5752 127.906 37.3672 127.618 38.0712C127.346 38.7592 126.946 39.3512 126.418 39.8472C125.906 40.3432 125.274 40.7272 124.522 40.9992C123.786 41.2552 122.954 41.3832 122.026 41.3832Z" fill="white"/>
<path d="M71.5609 38.7L67.4109 41.2C67.2275 41.3167 67.0359 41.3667 66.8359 41.35C66.6359 41.3333 66.4609 41.2667 66.3109 41.15C66.1609 41.0333 66.0442 40.8877 65.9609 40.713C65.8775 40.5383 65.8609 40.3423 65.9109 40.125L67.0109 35.4L63.3359 32.225C63.1692 32.075 63.0652 31.904 63.0239 31.712C62.9825 31.52 62.9949 31.3327 63.0609 31.15C63.1269 30.9673 63.2269 30.8173 63.3609 30.7C63.4949 30.5827 63.6782 30.5077 63.9109 30.475L68.7609 30.05L70.6359 25.6C70.7192 25.4 70.8485 25.25 71.0239 25.15C71.1992 25.05 71.3782 25 71.5609 25C71.7435 25 71.9225 25.05 72.0979 25.15C72.2732 25.25 72.4025 25.4 72.4859 25.6L74.3609 30.05L79.2109 30.475C79.4442 30.5083 79.6275 30.5833 79.7609 30.7C79.8942 30.8167 79.9942 30.9667 80.0609 31.15C80.1275 31.3333 80.1402 31.521 80.0989 31.713C80.0575 31.905 79.9532 32.0757 79.7859 32.225L76.1109 35.4L77.2109 40.125C77.2609 40.3417 77.2442 40.5377 77.1609 40.713C77.0775 40.8883 76.9609 41.034 76.8109 41.15C76.6609 41.266 76.4859 41.3327 76.2859 41.35C76.0859 41.3673 75.8942 41.3173 75.7109 41.2L71.5609 38.7Z" fill="#FFBD09"/>
<path d="M25.3418 37.5332V35.8498L32.7686 24.099H33.9898V26.7066H33.1647L27.5533 35.5857V35.7178H37.5547V37.5332H25.3418ZM33.2967 40.999V24.099H35.2441V40.999H33.2967Z" fill="white"/>
<path d="M42.7906 38.6885L42.6585 39.5797C42.565 40.2068 42.422 40.878 42.2294 41.5932C42.0424 42.3083 41.8471 42.9822 41.6435 43.6149C41.44 44.2475 41.2722 44.7509 41.1402 45.125H39.6548C39.7263 44.7729 39.8199 44.3081 39.9354 43.7304C40.0509 43.1528 40.1664 42.5064 40.282 41.7912C40.403 41.0815 40.502 40.3554 40.579 39.6127L40.6781 38.6885H42.7906Z" fill="white"/>
<path d="M51.5871 23.868C52.2803 23.8735 52.9735 24.0055 53.6666 24.2641C54.3598 24.5226 54.9924 24.9517 55.5646 25.5514C56.1367 26.1455 56.5961 26.9569 56.9427 27.9857C57.2892 29.0144 57.4625 30.3045 57.4625 31.8559C57.4625 33.3577 57.3195 34.6918 57.0334 35.8581C56.7529 37.0188 56.3458 37.9981 55.8121 38.7957C55.284 39.5934 54.6404 40.1986 53.8812 40.6112C53.1275 41.0238 52.2748 41.2301 51.3231 41.2301C50.3769 41.2301 49.5324 41.043 48.7897 40.6689C48.0526 40.2894 47.4474 39.764 46.9743 39.0928C46.5067 38.4162 46.2069 37.6322 46.0748 36.741H48.0883C48.2699 37.5167 48.6302 38.1576 49.1693 38.6637C49.7139 39.1643 50.4319 39.4146 51.3231 39.4146C52.6269 39.4146 53.6556 38.8453 54.4093 37.7065C55.1685 36.5677 55.5481 34.9586 55.5481 32.8791H55.4161C55.108 33.3412 54.7421 33.7401 54.3185 34.0756C53.8949 34.4112 53.4246 34.6698 52.9075 34.8513C52.3903 35.0329 51.8402 35.1236 51.2571 35.1236C50.2888 35.1236 49.4004 34.8843 48.5917 34.4057C47.7885 33.9216 47.1448 33.2587 46.6607 32.417C46.1821 31.5698 45.9428 30.6016 45.9428 29.5123C45.9428 28.4781 46.1739 27.5318 46.636 26.6736C47.1036 25.8099 47.7582 25.1223 48.5999 24.6106C49.4471 24.099 50.4429 23.8515 51.5871 23.868ZM51.5871 25.6834C50.894 25.6834 50.2696 25.8567 49.7139 26.2033C49.1638 26.5443 48.7265 27.0065 48.4019 27.5896C48.0828 28.1672 47.9233 28.8081 47.9233 29.5123C47.9233 30.2165 48.0773 30.8574 48.3854 31.435C48.699 32.0071 49.1253 32.4637 49.6644 32.8048C50.2091 33.1404 50.828 33.3082 51.5211 33.3082C52.0438 33.3082 52.5306 33.2064 52.9817 33.0029C53.4328 32.7938 53.8262 32.5105 54.1618 32.1529C54.5028 31.7898 54.7696 31.38 54.9622 30.9234C55.1547 30.4613 55.251 29.9799 55.251 29.4793C55.251 28.8191 55.0915 28.2002 54.7724 27.6226C54.4588 27.045 54.0242 26.5774 53.4686 26.2198C52.9185 25.8622 52.2913 25.6834 51.5871 25.6834Z" fill="white"/>
</svg>
