<svg width="163" height="74" viewBox="0 0 163 74" fill="none" xmlns="http://www.w3.org/2000/svg">
<rect x="10.9045" y="12" width="151.557" height="53" rx="26.5" transform="rotate(3.14153 10.9045 12)" fill="white" fill-opacity="0.36"/>
<rect x="0.730713" y="8.11618" width="150.413" height="53" rx="26.5" transform="rotate(-2.79554 0.730713 8.11618)" fill="#3EB3BC"/>
<path d="M26.832 35.024H33.408V26.432L26.832 35.024ZM33.408 41V36.8H25.056V34.592L33.024 24.2H35.328V35.024H37.824V36.8H35.328V41H33.408ZM40.6532 39.728C40.6532 39.36 40.7812 39.04 41.0372 38.768C41.2932 38.496 41.6212 38.36 42.0212 38.36C42.4692 38.36 42.8292 38.544 43.1012 38.912C43.3892 39.264 43.5332 39.728 43.5332 40.304C43.5332 40.912 43.3732 41.552 43.0532 42.224C42.7332 42.896 42.2452 43.56 41.5892 44.216L40.6772 43.376C41.4292 42.608 41.9172 41.824 42.1412 41.024C42.0932 41.04 42.0292 41.048 41.9492 41.048C41.5812 41.048 41.2692 40.92 41.0132 40.664C40.7732 40.408 40.6532 40.096 40.6532 39.728ZM51.9823 39.464C53.1823 39.464 54.1263 39.176 54.8143 38.6C55.5183 38.008 55.8703 37.256 55.8703 36.344C55.8703 35.448 55.5183 34.712 54.8143 34.136C54.1103 33.544 53.1663 33.248 51.9823 33.248C50.7983 33.248 49.8543 33.544 49.1503 34.136C48.4463 34.712 48.0943 35.448 48.0943 36.344C48.0943 37.256 48.4383 38.008 49.1263 38.6C49.8303 39.176 50.7823 39.464 51.9823 39.464ZM51.9823 31.472C53.0543 31.472 53.9023 31.216 54.5263 30.704C55.1663 30.176 55.4863 29.488 55.4863 28.64C55.4863 27.808 55.1663 27.12 54.5263 26.576C53.9023 26.016 53.0543 25.736 51.9823 25.736C50.9103 25.736 50.0543 26.016 49.4143 26.576C48.7903 27.12 48.4783 27.808 48.4783 28.64C48.4783 29.488 48.7903 30.176 49.4143 30.704C50.0543 31.216 50.9103 31.472 51.9823 31.472ZM51.9823 41.384C51.1023 41.384 50.2943 41.264 49.5583 41.024C48.8383 40.8 48.2223 40.48 47.7103 40.064C47.1983 39.632 46.7983 39.12 46.5103 38.528C46.2223 37.92 46.0783 37.248 46.0783 36.512C46.0783 35.504 46.3343 34.648 46.8463 33.944C47.3743 33.24 48.1183 32.72 49.0783 32.384C48.2143 32.048 47.5583 31.544 47.1103 30.872C46.6783 30.184 46.4623 29.392 46.4623 28.496C46.4623 27.808 46.5903 27.176 46.8463 26.6C47.1183 26.024 47.4943 25.536 47.9743 25.136C48.4543 24.72 49.0303 24.4 49.7023 24.176C50.3903 23.936 51.1503 23.816 51.9823 23.816C52.8143 23.816 53.5663 23.936 54.2383 24.176C54.9263 24.4 55.5103 24.72 55.9903 25.136C56.4703 25.536 56.8383 26.024 57.0943 26.6C57.3663 27.176 57.5023 27.808 57.5023 28.496C57.5023 29.392 57.2783 30.184 56.8303 30.872C56.3983 31.544 55.7503 32.048 54.8863 32.384C55.8463 32.72 56.5823 33.24 57.0943 33.944C57.6223 34.648 57.8863 35.504 57.8863 36.512C57.8863 37.248 57.7423 37.92 57.4543 38.528C57.1663 39.12 56.7663 39.632 56.2543 40.064C55.7423 40.48 55.1183 40.8 54.3823 41.024C53.6623 41.264 52.8623 41.384 51.9823 41.384ZM87.5799 29V38.144L93.9159 29H95.8839V41H93.9639V31.856L87.6279 41H85.6599V29H87.5799ZM103.543 41.336C101.031 41.336 99.3109 40.328 98.3829 38.312L99.9429 37.472C100.311 38.24 100.807 38.8 101.431 39.152C102.055 39.488 102.775 39.656 103.591 39.656C104.455 39.656 105.159 39.48 105.703 39.128C106.263 38.76 106.543 38.264 106.543 37.64C106.543 37.144 106.343 36.704 105.943 36.32C105.543 35.936 104.935 35.744 104.119 35.744H101.671V33.968H104.119C104.791 33.968 105.327 33.816 105.727 33.512C106.143 33.192 106.351 32.776 106.351 32.264C106.351 31.688 106.095 31.224 105.583 30.872C105.087 30.52 104.423 30.344 103.591 30.344C102.071 30.344 100.975 31 100.303 32.312L98.7429 31.472C99.1589 30.56 99.7829 29.864 100.615 29.384C101.463 28.904 102.463 28.664 103.615 28.664C104.287 28.664 104.903 28.752 105.463 28.928C106.039 29.088 106.527 29.32 106.927 29.624C107.343 29.928 107.663 30.304 107.887 30.752C108.111 31.184 108.223 31.664 108.223 32.192C108.223 32.816 108.055 33.36 107.719 33.824C107.399 34.272 106.895 34.624 106.207 34.88C106.911 35.088 107.455 35.44 107.839 35.936C108.223 36.416 108.415 37.008 108.415 37.712C108.415 38.24 108.295 38.728 108.055 39.176C107.831 39.608 107.511 39.992 107.095 40.328C106.679 40.648 106.167 40.896 105.559 41.072C104.967 41.248 104.295 41.336 103.543 41.336ZM122.026 41.384C119.386 41.384 117.49 40.28 116.338 38.072L118.066 37.136C118.962 38.688 120.274 39.464 122.002 39.464C122.61 39.464 123.162 39.376 123.658 39.2C124.154 39.008 124.578 38.752 124.93 38.432C125.282 38.096 125.554 37.696 125.746 37.232C125.938 36.752 126.034 36.224 126.034 35.648C126.034 35.136 125.954 34.656 125.794 34.208C125.65 33.76 125.41 33.368 125.074 33.032C124.754 32.68 124.346 32.408 123.85 32.216C123.354 32.008 122.762 31.904 122.074 31.904C120.618 31.904 119.474 32.424 118.642 33.464L117.058 32.888L117.514 24.2H127.114V26.072H119.146L118.906 31.112C119.882 30.424 121.042 30.08 122.386 30.08C123.282 30.08 124.074 30.216 124.762 30.488C125.466 30.76 126.058 31.144 126.538 31.64C127.034 32.12 127.41 32.704 127.666 33.392C127.922 34.08 128.05 34.848 128.05 35.696C128.05 36.576 127.906 37.368 127.618 38.072C127.346 38.76 126.946 39.352 126.418 39.848C125.906 40.344 125.274 40.728 124.522 41C123.786 41.256 122.954 41.384 122.026 41.384Z" fill="white"/>
<path d="M71.5609 38.7L67.4109 41.2C67.2275 41.3167 67.0359 41.3667 66.8359 41.35C66.6359 41.3333 66.4609 41.2667 66.3109 41.15C66.1609 41.0333 66.0442 40.8877 65.9609 40.713C65.8775 40.5383 65.8609 40.3423 65.9109 40.125L67.0109 35.4L63.3359 32.225C63.1692 32.075 63.0652 31.904 63.0239 31.712C62.9825 31.52 62.9949 31.3327 63.0609 31.15C63.1269 30.9673 63.2269 30.8173 63.3609 30.7C63.4949 30.5827 63.6782 30.5077 63.9109 30.475L68.7609 30.05L70.6359 25.6C70.7192 25.4 70.8485 25.25 71.0239 25.15C71.1992 25.05 71.3782 25 71.5609 25C71.7435 25 71.9225 25.05 72.0979 25.15C72.2732 25.25 72.4025 25.4 72.4859 25.6L74.3609 30.05L79.2109 30.475C79.4442 30.5083 79.6275 30.5833 79.7609 30.7C79.8942 30.8167 79.9942 30.9667 80.0609 31.15C80.1275 31.3333 80.1402 31.521 80.0989 31.713C80.0575 31.905 79.9532 32.0757 79.7859 32.225L76.1109 35.4L77.2109 40.125C77.2609 40.3417 77.2442 40.5377 77.1609 40.713C77.0775 40.8883 76.9609 41.034 76.8109 41.15C76.6609 41.266 76.4859 41.3327 76.2859 41.35C76.0859 41.3673 75.8942 41.3173 75.7109 41.2L71.5609 38.7Z" fill="#FFBD09"/>
</svg>
