<svg width="24" height="24" viewBox="0 0 24 24" fill="none" xmlns="http://www.w3.org/2000/svg">
<path d="M12 0C5.373 0 0 5.373 0 12s5.373 12 12 12 12-5.373 12-12S18.627 0 12 0zm5.568 16.5c-.3.3-.7.4-1.1.4-.4 0-.8-.1-1.1-.4l-1.4-1.4-1.4 1.4c-.3.3-.7.4-1.1.4-.4 0-.8-.1-1.1-.4-.6-.6-.6-1.5 0-2.1l1.4-1.4-1.4-1.4c-.6-.6-.6-1.5 0-2.1.6-.6 1.5-.6 2.1 0l1.4 1.4 1.4-1.4c.6-.6 1.5-.6 2.1 0 .6.6.6 1.5 0 2.1l-1.4 1.4 1.4 1.4c.6.6.6 1.5 0 2.1z" fill="#4C75A3"/>
<path d="M8.5 6.5c-.3 0-.5.2-.5.5v10c0 .3.2.5.5.5h7c.3 0 .5-.2.5-.5V7c0-.3-.2-.5-.5-.5h-7zm1 1h5v8h-5v-8z" fill="#4C75A3"/>
</svg>
