<svg width="62" height="15" viewBox="0 0 62 15" fill="none" xmlns="http://www.w3.org/2000/svg">
<path d="M0.544444 0.496594H13.4556C13.7562 0.496594 14 0.74035 14 1.04104V3.58C14 3.91819 13.8532 4.23841 13.5978 4.46L6.37778 10.5H13.4556C13.7562 10.5 14 10.7393 14 11.04V13.9548C14 14.2555 13.7562 14.4992 13.4556 14.4992H0.544444C0.243756 14.4992 0 14.2555 0 13.9548V11.42C0 11.0818 0.146755 10.7616 0.402239 10.54L7.62222 4.5H0.544444C0.243756 4.5 0 4.25069 0 3.95V1.04104C0 0.74035 0.243756 0.496594 0.544444 0.496594ZM23 0C24.4929 0 25.8238 0.33571 26.9349 0.949198C28.046 1.56269 28.9373 2.45395 29.5508 3.56506C30.1643 4.67617 30.5 6.00713 30.5 7.5C30.5 8.99287 30.1643 10.3238 29.5508 11.4349C28.9373 12.546 28.046 13.4373 26.9349 14.0508C25.8238 14.6643 24.4929 15 23 15C21.5071 15 20.1762 14.6643 19.0651 14.0508C17.954 13.4373 17.0627 12.546 16.4492 11.4349C15.8357 10.3238 15.5 8.99287 15.5 7.5C15.5 6.00713 15.8357 4.67617 16.4492 3.56506C17.0627 2.45395 17.954 1.56269 19.0651 0.949198C20.1762 0.33571 21.5071 0 23 0ZM23 4C22.2859 4 21.659 4.15085 21.1404 4.43133C20.6219 4.71181 20.2118 5.12192 19.9313 5.64043C19.6508 6.15895 19.5 6.78588 19.5 7.5C19.5 8.21412 19.6508 8.84105 19.9313 9.35957C20.2118 9.87808 20.6219 10.2882 21.1404 10.5687C21.659 10.8492 22.2859 11 23 11C23.7141 11 24.341 10.8492 24.8596 10.5687C25.3781 10.2882 25.7882 9.87808 26.0687 9.35957C26.3492 8.84105 26.5 8.21412 26.5 7.5C26.5 6.78588 26.3492 6.15895 26.0687 5.64043C25.7882 5.12192 25.3781 4.71181 24.8596 4.43133C24.341 4.15085 23.7141 4 23 4ZM39 0C40.4929 0 41.8238 0.33571 42.9349 0.949198C44.046 1.56269 44.9373 2.45395 45.5508 3.56506C46.1643 4.67617 46.5 6.00713 46.5 7.5C46.5 8.99287 46.1643 10.3238 45.5508 11.4349C44.9373 12.546 44.046 13.4373 42.9349 14.0508C41.8238 14.6643 40.4929 15 39 15C37.5071 15 36.1762 14.6643 35.0651 14.0508C33.954 13.4373 33.0627 12.546 32.4492 11.4349C31.8357 10.3238 31.5 8.99287 31.5 7.5C31.5 6.00713 31.8357 4.67617 32.4492 3.56506C33.0627 2.45395 33.954 1.56269 35.0651 0.949198C36.1762 0.33571 37.5071 0 39 0ZM39 4C38.2859 4 37.659 4.15085 37.1404 4.43133C36.6219 4.71181 36.2118 5.12192 35.9313 5.64043C35.6508 6.15895 35.5 6.78588 35.5 7.5C35.5 8.21412 35.6508 8.84105 35.9313 9.35957C36.2118 9.87808 36.6219 10.2882 37.1404 10.5687C37.659 10.8492 38.2859 11 39 11C39.7141 11 40.341 10.8492 40.8596 10.5687C41.3781 10.2882 41.7882 9.87808 42.0687 9.35957C42.3492 8.84105 42.5 8.21412 42.5 7.5C42.5 6.78588 42.3492 6.15895 42.0687 5.64043C41.7882 5.12192 41.3781 4.71181 40.8596 4.43133C40.341 4.15085 39.7141 4 39 4ZM62.0017 1.04277V13.9546C62.0017 14.2553 61.7579 14.4991 61.4572 14.4991H58.92C58.5818 14.4991 58.2616 14.3523 58.04 14.0969L52 6.87774V13.9546C52 14.2553 51.7507 14.4991 51.45 14.4991H48.5428C48.2421 14.4991 47.9983 14.2553 47.9983 13.9546V1.04277C47.9983 0.742066 48.2421 0.498297 48.5428 0.498297H51.08C51.4183 0.498297 51.7384 0.64509 51.96 0.900633L58 8.12226V1.04277C58 0.742066 58.2393 0.498297 58.54 0.498297H61.4572C61.7579 0.498297 62.0017 0.742066 62.0017 1.04277Z" fill="url(#paint0_linear_358_149)"/>
<defs>
<linearGradient id="paint0_linear_358_149" x1="0" y1="7.5" x2="62.0017" y2="7.5" gradientUnits="userSpaceOnUse">
<stop stop-color="#2A2A2A"/>
<stop offset="1" stop-color="#7708B7"/>
</linearGradient>
</defs>
</svg>
